<svg width="15" height="15" viewBox="0 0 15 15" fill="none" xmlns="http://www.w3.org/2000/svg">
<path fill-rule="evenodd" clip-rule="evenodd" d="M1.00336 1.00153C1.09334 0.911309 1.20025 0.839732 1.31794 0.790894C1.43563 0.742057 1.56181 0.716919 1.68923 0.716919C1.81666 0.716919 1.94283 0.742057 2.06052 0.790894C2.17821 0.839732 2.28512 0.911309 2.37511 1.00153L7.50173 6.13009L12.6284 1.00153C12.7184 0.911455 12.8254 0.840007 12.943 0.791261C13.0607 0.742515 13.1868 0.717426 13.3142 0.717426C13.4416 0.717426 13.5677 0.742515 13.6854 0.791261C13.8031 0.840007 13.91 0.911455 14.0001 1.00153C14.0902 1.0916 14.1616 1.19852 14.2104 1.31621C14.2591 1.43389 14.2842 1.56002 14.2842 1.6874C14.2842 1.81478 14.2591 1.94091 14.2104 2.05859C14.1616 2.17628 14.0902 2.2832 14.0001 2.37327L8.87154 7.4999L14.0001 12.6265C14.0902 12.7166 14.1616 12.8235 14.2104 12.9412C14.2591 13.0589 14.2842 13.185 14.2842 13.3124C14.2842 13.4398 14.2591 13.5659 14.2104 13.6836C14.1616 13.8013 14.0902 13.9082 14.0001 13.9983C13.91 14.0883 13.8031 14.1598 13.6854 14.2085C13.5677 14.2573 13.4416 14.2824 13.3142 14.2824C13.1868 14.2824 13.0607 14.2573 12.943 14.2085C12.8254 14.1598 12.7184 14.0883 12.6284 13.9983L7.50173 8.86971L2.37511 13.9983C2.28504 14.0883 2.17811 14.1598 2.06042 14.2085C1.94274 14.2573 1.81661 14.2824 1.68923 14.2824C1.56185 14.2824 1.43572 14.2573 1.31804 14.2085C1.20036 14.1598 1.09343 14.0883 1.00336 13.9983C0.913286 13.9082 0.841838 13.8013 0.793092 13.6836C0.744346 13.5659 0.719257 13.4398 0.719257 13.3124C0.719257 13.185 0.744346 13.0589 0.793092 12.9412C0.841838 12.8235 0.913286 12.7166 1.00336 12.6265L6.13192 7.4999L1.00336 2.37327C0.91314 2.28329 0.841563 2.17638 0.792725 2.05869C0.743888 1.941 0.71875 1.81482 0.71875 1.6874C0.71875 1.55998 0.743888 1.4338 0.792725 1.31611C0.841563 1.19842 0.91314 1.09151 1.00336 1.00153Z" fill="#BD2130"/>
</svg>
