<svg width="16" height="16" viewBox="0 0 16 16" fill="#BD2130" xmlns="http://www.w3.org/2000/svg">
<path fill-rule="evenodd" clip-rule="evenodd" d="M12.8538 0.146027C12.76 0.0522915 12.6329 -0.000366211 12.5003 -0.000366211C12.3677 -0.000366211 12.2406 0.0522915 12.1468 0.146027L10.4998 1.79303L14.2068 5.50003L15.8538 3.85403C15.9004 3.80758 15.9373 3.75241 15.9625 3.69166C15.9877 3.63092 16.0007 3.56579 16.0007 3.50003C16.0007 3.43426 15.9877 3.36914 15.9625 3.30839C15.9373 3.24765 15.9004 3.19247 15.8538 3.14603L12.8538 0.146027ZM13.4998 6.20703L9.79281 2.50003L3.29281 9.00003H3.49981C3.63241 9.00003 3.75959 9.05271 3.85336 9.14647C3.94713 9.24024 3.99981 9.36742 3.99981 9.50003V10H4.49981C4.63241 10 4.75959 10.0527 4.85336 10.1465C4.94713 10.2402 4.99981 10.3674 4.99981 10.5V11H5.49981C5.63241 11 5.75959 11.0527 5.85336 11.1465C5.94713 11.2402 5.99981 11.3674 5.99981 11.5V12H6.4998C6.63241 12 6.75959 12.0527 6.85336 12.1465C6.94713 12.2402 6.9998 12.3674 6.9998 12.5V12.707L13.4998 6.20703ZM6.03181 13.675C6.01076 13.6191 5.99993 13.5598 5.99981 13.5V13H5.49981C5.3672 13 5.24002 12.9474 5.14625 12.8536C5.05248 12.7598 4.99981 12.6326 4.99981 12.5V12H4.49981C4.3672 12 4.24002 11.9474 4.14625 11.8536C4.05248 11.7598 3.99981 11.6326 3.99981 11.5V11H3.49981C3.3672 11 3.24002 10.9473 3.14625 10.8536C3.05248 10.7598 2.99981 10.6326 2.99981 10.5V10H2.49981C2.44003 9.99993 2.38075 9.98909 2.32481 9.96803L2.14581 10.146C2.09816 10.194 2.06073 10.2512 2.03581 10.314L0.0358061 15.314C-0.000564594 15.4049 -0.0094681 15.5044 0.0101994 15.6003C0.0298668 15.6962 0.0772403 15.7842 0.146447 15.8534C0.215653 15.9226 0.303649 15.97 0.399526 15.9896C0.495402 16.0093 0.594942 16.0004 0.685806 15.964L5.68581 13.964C5.74867 13.9391 5.80582 13.9017 5.85381 13.854L6.03181 13.676V13.675Z" fill="#BD2130"/>
</svg>
