<svg width="22" height="22" viewBox="0 0 22 22" fill="none" xmlns="http://www.w3.org/2000/svg">
<path d="M18.8578 0H2.26293C1.01315 0 0 1.01315 0 2.26293V18.8578C0 20.1075 1.01315 21.1207 2.26293 21.1207H18.8578C20.1075 21.1207 21.1207 20.1075 21.1207 18.8578V2.26293C21.1207 1.01315 20.1075 0 18.8578 0ZM6.78879 16.5948H4.52586C4.10925 16.5948 3.77153 16.2571 3.77153 15.8405C3.77153 15.4239 4.10925 15.0862 4.52586 15.0862H6.78879C7.2054 15.0862 7.54311 15.4239 7.54311 15.8405C7.54311 16.2571 7.2054 16.5948 6.78879 16.5948ZM6.78879 11.3146H4.52586C4.10925 11.3146 3.77153 10.9769 3.77153 10.5603C3.77153 10.1437 4.10925 9.806 4.52586 9.806H6.78879C7.2054 9.806 7.54311 10.1437 7.54311 10.5603C7.54311 10.9769 7.2054 11.3146 6.78879 11.3146ZM6.78879 6.03446H4.52586C4.10925 6.03446 3.77153 5.69675 3.77153 5.28014C3.77153 4.86353 4.10925 4.52586 4.52586 4.52586H6.78879C7.2054 4.52586 7.54311 4.86357 7.54311 5.28018C7.54311 5.69679 7.2054 6.03446 6.78879 6.03446ZM16.5948 16.5948H9.80604C9.38943 16.5948 9.05172 16.2571 9.05172 15.8405C9.05172 15.4239 9.38943 15.0862 9.80604 15.0862H16.5948C17.0114 15.0862 17.3492 15.4239 17.3492 15.8405C17.3492 16.2571 17.0114 16.5948 16.5948 16.5948ZM16.5948 11.3146H9.80604C9.38943 11.3146 9.05172 10.9769 9.05172 10.5603C9.05172 10.1437 9.38943 9.806 9.80604 9.806H16.5948C17.0114 9.806 17.3492 10.1437 17.3492 10.5603C17.3492 10.9769 17.0114 11.3146 16.5948 11.3146ZM16.5948 6.03446H9.80604C9.38943 6.03446 9.05172 5.69675 9.05172 5.28014C9.05172 4.86353 9.38943 4.52581 9.80604 4.52581H16.5948C17.0114 4.52581 17.3492 4.86353 17.3492 5.28014C17.3492 5.69675 17.0114 6.03446 16.5948 6.03446Z" fill="#5BA53E"/>
</svg>
