<svg width="16" height="14" viewBox="0 0 16 14" fill="none" xmlns="http://www.w3.org/2000/svg">
<path fill-rule="evenodd" clip-rule="evenodd" d="M0.5 7.00112C0.5 7.24976 0.598772 7.48822 0.774588 7.66404C0.950403 7.83985 1.18886 7.93862 1.4375 7.93862H12.2994L8.27375 11.9624C8.18658 12.0495 8.11744 12.153 8.07027 12.2669C8.02309 12.3808 7.99882 12.5029 7.99882 12.6261C7.99882 12.7494 8.02309 12.8715 8.07027 12.9853C8.11744 13.0992 8.18658 13.2027 8.27375 13.2899C8.36091 13.377 8.46439 13.4462 8.57828 13.4934C8.69217 13.5405 8.81423 13.5648 8.9375 13.5648C9.06077 13.5648 9.18283 13.5405 9.29672 13.4934C9.41061 13.4462 9.51408 13.377 9.60125 13.2899L15.2262 7.66487C15.3136 7.57779 15.3828 7.47433 15.4301 7.36044C15.4773 7.24654 15.5017 7.12444 15.5017 7.00112C15.5017 6.87781 15.4773 6.75571 15.4301 6.64181C15.3828 6.52791 15.3136 6.42446 15.2262 6.33737L9.60125 0.712373C9.51408 0.625209 9.41061 0.556065 9.29672 0.508892C9.18283 0.461719 9.06077 0.437439 8.9375 0.437439C8.81423 0.437439 8.69217 0.461719 8.57828 0.508892C8.46439 0.556065 8.36091 0.625209 8.27375 0.712373C8.18658 0.799538 8.11744 0.903018 8.07027 1.0169C8.02309 1.13079 7.99882 1.25285 7.99882 1.37612C7.99882 1.49939 8.02309 1.62146 8.07027 1.73534C8.11744 1.84923 8.18658 1.95271 8.27375 2.03987L12.2994 6.06362H1.4375C1.18886 6.06362 0.950403 6.1624 0.774588 6.33821C0.598772 6.51403 0.5 6.75248 0.5 7.00112Z" fill="#BD2130"/>
</svg>
