<svg width="20" height="12" viewBox="0 0 20 12" fill="none" xmlns="http://www.w3.org/2000/svg">
<path d="M16.5958 6.85669C16.2725 6.44836 16.365 6.26669 16.5958 5.90169C16.6 5.89752 19.2692 2.20919 19.5442 0.958354L19.5458 0.95752C19.6825 0.501687 19.5458 0.166687 18.885 0.166687H16.6983C16.1417 0.166687 15.885 0.454187 15.7475 0.775854C15.7475 0.775854 14.6342 3.44085 13.0592 5.16835C12.5508 5.66752 12.3158 5.82752 12.0383 5.82752C11.9017 5.82752 11.6892 5.66752 11.6892 5.21169V0.95752C11.6892 0.410854 11.5333 0.166687 11.0725 0.166687H7.63417C7.285 0.166687 7.0775 0.421687 7.0775 0.659187C7.0775 1.17752 7.865 1.29669 7.94667 2.75502V5.91919C7.94667 6.61252 7.82083 6.74002 7.54167 6.74002C6.79833 6.74002 4.99417 4.06419 3.925 1.00169C3.70917 0.40752 3.49833 0.16752 2.9375 0.16752H0.75C0.125833 0.16752 0 0.45502 0 0.776687C0 1.34502 0.743333 4.17085 3.45667 7.90419C5.265 10.4525 7.81167 11.8334 10.1283 11.8334C11.5208 11.8334 11.6908 11.5267 11.6908 10.9992C11.6908 8.56419 11.565 8.33419 12.2625 8.33419C12.5858 8.33419 13.1425 8.49419 14.4425 9.72336C15.9283 11.1809 16.1725 11.8334 17.0042 11.8334H19.1908C19.8142 11.8334 20.13 11.5267 19.9483 10.9217C19.5325 9.64919 16.7225 7.03169 16.5958 6.85669Z" fill="#6C6C6C"/>
</svg>
