<svg width="22" height="21" viewBox="0 0 22 21" fill="none" xmlns="http://www.w3.org/2000/svg">
<path d="M0.65 11.0818C0.65 10.2262 1.3581 9.51548 2.24183 9.51548H5.62715V19.5803C5.41616 19.6831 5.18086 19.7406 4.93204 19.7406H2.24183C1.3581 19.7406 0.65 19.0299 0.65 18.1742V11.0818Z" stroke="#BD2130" stroke-width="1.3"/>
<path d="M20.4605 10.3533L20.0339 10.8149L20.4809 11.2568C20.7299 11.503 20.8716 11.8339 20.8716 12.19C20.8716 12.7013 20.5762 13.1564 20.1246 13.3812L19.5381 13.6731L19.8345 14.2572C19.9262 14.4379 19.9749 14.6376 19.9749 14.8497C19.9749 15.3614 19.6789 15.8168 19.2269 16.0417L18.6402 16.3337L18.937 16.918C19.0731 17.186 19.1151 17.4971 19.0444 17.8136C18.9157 18.3887 18.3463 18.854 17.6468 18.854H9.41566C9.01514 18.854 8.39044 18.7465 7.82383 18.5441V9.79872L7.8704 9.69898L10.453 4.1678L10.514 4.03707V3.8928V0.996379C10.6959 0.880066 11.1227 0.65 11.6575 0.65C11.7577 0.65 11.9382 0.69392 12.1788 0.839642C12.4116 0.980646 12.6625 1.19458 12.894 1.4701C13.3605 2.02542 13.6977 2.76876 13.6977 3.54617C13.6977 4.64436 13.2906 6.06638 13.0172 6.88689L12.7322 7.74235H13.6339H19.1731C20.0789 7.74235 20.7938 8.40307 20.8645 9.16243C20.9055 9.60819 20.7559 10.0339 20.4605 10.3533Z" stroke="#BD2130" stroke-width="1.3"/>
</svg>
