<svg width="22" height="21" viewBox="0 0 22 21" fill="none" xmlns="http://www.w3.org/2000/svg">
<g clip-path="url(#clip0)">
<path d="M10.0065 13.4829H6.83367C6.69891 13.4829 6.5896 13.593 6.5896 13.7289V19.927C6.5896 20.0628 6.69887 20.1729 6.83367 20.1729H10.0065C10.1412 20.1729 10.2505 20.0628 10.2505 19.927V13.7289C10.2505 13.593 10.1413 13.4829 10.0065 13.4829Z" fill="#5BA53E"/>
<path d="M10.0065 6.84216H6.83367C6.69891 6.84216 6.5896 6.95228 6.5896 7.08812V11.7613C6.5896 11.8971 6.69887 12.0073 6.83367 12.0073H10.0065C10.1412 12.0073 10.2505 11.8971 10.2505 11.7613V7.08812C10.2505 6.95228 10.1413 6.84216 10.0065 6.84216Z" fill="#5BA53E"/>
<path d="M15.1317 13.4829H11.9589C11.8242 13.4829 11.7148 13.593 11.7148 13.7289V19.927C11.7148 20.0628 11.8241 20.1729 11.9589 20.1729H15.1317C15.2665 20.1729 15.3758 20.0628 15.3758 19.927V13.7289C15.3758 13.593 15.2665 13.4829 15.1317 13.4829Z" fill="#5BA53E"/>
<path d="M4.88124 6.84216H0.244066C0.109313 6.84216 0 6.95228 0 7.08812V11.7613C0 11.8971 0.10927 12.0073 0.244066 12.0073H4.88124C5.01599 12.0073 5.1253 11.8971 5.1253 11.7613V7.08812C5.1253 6.95228 5.01599 6.84216 4.88124 6.84216Z" fill="#5BA53E"/>
<path d="M20.257 1.43107H17.2795V0.840787C17.2795 0.433303 16.9517 0.102905 16.5473 0.102905C16.1429 0.102905 15.8152 0.433303 15.8152 0.840787V1.43107H6.15034V0.840787C6.15034 0.433303 5.82253 0.102905 5.41815 0.102905C5.01376 0.102905 4.68595 0.43326 4.68595 0.840787V1.43107H1.70855C0.764932 1.43107 0 2.20194 0 3.15288V5.12044C0 5.25623 0.10927 5.3664 0.244066 5.3664H21.7214C21.8562 5.3664 21.9655 5.25628 21.9655 5.12044V3.15288C21.9655 2.20194 21.2006 1.43107 20.257 1.43107Z" fill="#5BA53E"/>
<path d="M4.88124 13.4829H0.244066C0.109313 13.4829 0 13.593 0 13.7289V18.4516C0 19.4023 0.76476 20.1729 1.70803 20.1729H4.88124C5.01599 20.1729 5.1253 20.0628 5.1253 19.927V13.7289C5.1253 13.593 5.01599 13.4829 4.88124 13.4829Z" fill="#5BA53E"/>
<path d="M21.7216 13.4829H17.0844C16.9496 13.4829 16.8403 13.593 16.8403 13.7289V19.927C16.8403 20.0628 16.9496 20.1729 17.0844 20.1729H20.2576C21.2009 20.1729 21.9656 19.4022 21.9656 18.4516V13.7289C21.9656 13.593 21.8564 13.4829 21.7216 13.4829Z" fill="#5BA53E"/>
<path d="M15.1317 6.84216H11.9589C11.8242 6.84216 11.7148 6.95228 11.7148 7.08812V11.7613C11.7148 11.8971 11.8241 12.0073 11.9589 12.0073H15.1317C15.2665 12.0073 15.3758 11.8971 15.3758 11.7613V7.08812C15.3758 6.95228 15.2665 6.84216 15.1317 6.84216Z" fill="#5BA53E"/>
<path d="M21.7216 6.84216H17.0844C16.9496 6.84216 16.8403 6.95228 16.8403 7.08812V11.7613C16.8403 11.8971 16.9496 12.0073 17.0844 12.0073H21.7216C21.8563 12.0073 21.9656 11.8971 21.9656 11.7613V7.08812C21.9656 6.95228 21.8564 6.84216 21.7216 6.84216Z" fill="#5BA53E"/>
</g>
<defs>
<clipPath id="clip0">
<rect width="21.9655" height="20.2759" fill="white"/>
</clipPath>
</defs>
</svg>
