<svg width="26" height="23" viewBox="0 0 26 23" fill="none" xmlns="http://www.w3.org/2000/svg">
<path d="M2.00848 11.8132L2.418 12.2259C2.87986 12.0173 3.23048 11.6013 3.35024 11.0927L3.71273 9.55337C4.02988 8.20682 5.16316 7.23389 6.5328 7.13242C9.21493 6.93361 11.4057 4.92923 11.8602 2.25814L11.8738 2.17787L11.7221 2.02491C10.3831 0.675622 8.62416 0.000976562 6.86529 0.000976562C5.10643 0.000976562 3.34756 0.675572 2.00853 2.02481C-0.6695 4.72349 -0.6695 9.11455 2.00848 11.8132Z" fill="#5BA53E"/>
<path d="M18.6441 9.16426C19.7336 8.97997 20.5831 8.11759 20.7578 7.0183L20.7687 6.94985C21.0326 5.2902 22.2544 3.97868 23.8816 3.6086L24.4412 3.48134C24.1414 2.95476 23.7705 2.46475 23.333 2.02394C20.6549 -0.674645 16.2975 -0.674645 13.6194 2.02394L13.3628 2.28256L13.3241 2.5101C12.7539 5.86053 10.006 8.37467 6.64174 8.62411C5.92101 8.6775 5.32469 9.18945 5.1578 9.89802L4.7953 11.4373C4.61148 12.2179 4.1415 12.8841 3.50513 13.3204L5.64698 15.4787L5.77867 15.3665C6.94513 14.3721 8.47739 13.9533 9.98258 14.217C11.4878 14.4809 12.7896 15.3967 13.5543 16.7296L15.3489 19.8578L17.0355 18.1583L15.5963 14.8289C15.094 13.667 15.1497 12.3617 15.7492 11.2475C16.3486 10.1334 17.4038 9.37409 18.6441 9.16426Z" fill="#5BA53E"/>
<path d="M14.2618 20.9533L12.2684 17.4787C11.7246 16.5306 10.7986 15.8793 9.72803 15.6917C8.65762 15.504 7.56766 15.8019 6.73796 16.5092L6.70093 16.5408L12.6708 22.5566L14.2618 20.9533Z" fill="#5BA53E"/>
<path d="M25.0431 4.87878L24.2086 5.06856C23.1772 5.30314 22.4026 6.13453 22.2354 7.18669L22.2244 7.25513C21.9488 8.98912 20.6088 10.3495 18.8901 10.6403C18.1038 10.7733 17.4349 11.2547 17.0549 11.9609C16.6749 12.6672 16.6396 13.4947 16.958 14.2313L18.164 17.0212L23.3331 11.8123C24.6304 10.505 25.3449 8.76696 25.3449 6.91819C25.3448 6.21655 25.2417 5.53098 25.0431 4.87878Z" fill="#5BA53E"/>
</svg>
