<svg width="154" height="54" id="Слой_1" data-name="Слой 1" xmlns="http://www.w3.org/2000/svg" xmlns:xlink="http://www.w3.org/1999/xlink" viewBox="0 0 2056.62 719.76"><defs><style>.cls-1{fill:none;}.cls-2{fill:#335637;}.cls-3{clip-path:url(#clip-path);}.cls-4{fill:#5cb352;}.cls-5{font-size:312.33px;fill:#315836;font-family:Marmelad-Regular, Marmelad;}</style><clipPath id="clip-path" transform="translate(-359.58 -360.63)"><path class="cls-1" d="M822.3,556.31h0c-36.06-5.82-72.09,3.33-101.44,25.76a85.42,85.42,0,0,1-103.5,0,131.18,131.18,0,0,0-101.44-25.76c-73.87,11.92-124.5,83.65-112.86,159.9,21.17,138.72,61.29,233.12,116,273,25.6,18.65,53.88,25.16,86.48,19.9,20-3.22,35.76-11.36,48.25-24.88a20.81,20.81,0,0,1,30.59,0c12.49,13.52,28.27,21.66,48.25,24.88,32.6,5.26,60.89-1.25,86.48-19.9,54.74-39.88,94.86-134.28,116-273C946.79,640,896.17,568.23,822.3,556.31Z"/></clipPath></defs><title>eng_hor</title><g id="apple"><path class="cls-2" d="M822.83,423.36a20.82,20.82,0,0,0-26.93-11.91c-3.28,1.27-54.87,21.78-95.61,69.66a142.65,142.65,0,0,0-6.54-22.64c-24.25-63.16-90.84-94.61-93.67-95.92a20.83,20.83,0,0,0-27.9,10.72c-1.22,2.86-29.67,70.79-5.43,134a140.22,140.22,0,0,0,7.55,16.3,174.67,174.67,0,0,1,68.35,32,43.66,43.66,0,0,0,52.92,0q5.5-4.18,11.23-7.92c10.83-23.79,27.76-45.32,50.68-64.29,27.31-22.61,53.23-32.91,53.44-33A20.81,20.81,0,0,0,822.83,423.36Z" transform="translate(-359.58 -360.63)"/><g class="cls-3"><rect class="cls-4" x="8.89" y="448.38" width="590.79" height="66.74"/><rect class="cls-4" x="8.89" y="588.78" width="590.79" height="66.74"/><rect class="cls-4" y="313.34" width="590.79" height="66.74"/><rect class="cls-4" x="6.01" y="181.9" width="590.79" height="66.74"/></g></g><text class="cls-5" transform="translate(633.74 359.47)">Nutrition <tspan x="0" y="291.51">planner</tspan></text></svg>