<svg width="263" height="309" viewBox="0 0 263 309" fill="none" xmlns="http://www.w3.org/2000/svg">
<g opacity="0.1">
<path d="M79.8391 169.251C79.8947 167.824 79.8168 166.396 79.6064 164.984C79.9228 164.587 80.158 164.131 80.2987 163.643C80.4734 163.025 80.5623 162.387 80.5632 161.745C80.5593 161.278 80.4487 160.819 80.2396 160.402C80.0305 159.985 79.7285 159.62 79.3568 159.337C78.9851 159.054 78.5535 158.859 78.0951 158.768C77.6366 158.676 77.1633 158.691 76.7116 158.81C75.7347 158.991 74.8135 159.395 74.0204 159.992C73.1801 160.787 72.5666 161.791 72.2423 162.9C72.0387 163.727 72.0354 164.591 72.2329 165.42C71.3508 165.493 70.4974 165.766 69.7378 166.218C68.9781 166.67 68.3324 167.29 67.85 168.029C66.2559 170.169 69.3387 173.075 71.4667 171.676C72.0963 171.313 73.09 171.912 73.5704 172.107C74.7208 172.676 76.0369 172.817 77.2809 172.503C78.0002 172.306 78.6367 171.883 79.0971 171.298C79.5575 170.712 79.8175 169.995 79.8391 169.251Z" fill="white"/>
<path d="M172.359 73.499C173.48 71.7194 170.831 69.5938 169.396 71.2227C165.298 75.8331 161.748 80.6346 158.05 85.5735C156.047 88.2451 153.981 90.3244 153.64 93.751C153.593 94.3247 153.701 94.9007 153.952 95.4193C154.203 95.9379 154.589 96.3802 155.069 96.7005C152.868 100.787 151.065 105.076 149.684 109.507C149.493 110.267 149.582 111.071 149.935 111.771C150.288 112.472 150.882 113.024 151.607 113.325C152.333 113.627 153.143 113.659 153.89 113.415C154.636 113.171 155.27 112.668 155.675 111.997C159.851 105.438 162.153 98.0898 165.541 91.0766C165.856 90.377 165.957 89.6002 165.832 88.843C165.708 88.0857 165.363 87.3814 164.84 86.8176C165.118 86.361 165.369 85.9195 165.546 85.5908C167.699 81.3663 169.936 77.4077 172.359 73.499Z" fill="white"/>
<path d="M154.018 69.9784C144.617 69.7826 142.701 78.009 138.375 84.7932C138.105 85.2374 137.932 85.7341 137.868 86.2503C137.804 86.7665 137.85 87.2904 138.005 87.7876C138.159 88.2848 138.417 88.7439 138.762 89.1346C139.107 89.5252 139.531 89.8384 140.006 90.0536C137.363 95.3636 134.819 100.634 134.556 106.914C134.513 108.318 136.763 109.032 137.372 107.668C141.181 99.086 147.376 91.4531 151.025 82.8059C151.409 81.7841 151.386 80.6539 150.961 79.647C151.486 78.6814 151.952 77.8548 151.899 77.885C153.685 76.4385 155.189 77.2841 156.643 74.5096C156.897 74.049 157.027 73.5308 157.021 73.005C157.015 72.4792 156.873 71.9636 156.609 71.5081C156.345 71.0525 155.968 70.6724 155.514 70.4044C155.06 70.1364 154.545 69.9897 154.018 69.9784Z" fill="white"/>
<path d="M120.116 116.829C119.776 109.237 121.622 99.5316 118.904 92.3647C118.71 91.7474 118.331 91.2045 117.816 90.8099C117.302 90.4154 116.679 90.1885 116.031 90.1601C115.384 90.1317 114.743 90.3033 114.197 90.6515C113.652 90.9996 113.227 91.5073 112.982 92.1054C111.401 92.3273 109.933 93.045 108.79 94.1547C107.647 95.2644 106.888 96.7087 106.623 98.2784C106.331 100.28 106.906 100.7 107.386 102.554C108.018 104.919 108.113 107.393 107.664 109.797C107.276 114.561 109.383 119.949 109.532 124.857C109.803 130.306 108.837 135.733 110.306 141.017C110.623 142.025 111.255 142.905 112.109 143.529C112.963 144.154 113.996 144.488 115.054 144.485C116.112 144.481 117.141 144.14 117.99 143.51C118.838 142.88 119.461 141.996 119.768 140.986C121.738 133.305 120.499 124.676 120.116 116.829Z" fill="white"/>
<path d="M181.085 41.7631C147.827 78.3426 138.285 128.446 113.409 170.103C101.208 190.55 85.0649 208.378 65.9104 222.559C56.7357 229.386 46.944 235.347 36.6616 240.366C25.3858 245.841 13.5065 248.765 1.96474 253.328C0.00820974 254.087 0.00238997 257.669 2.50817 257.345C23.7624 254.632 45.7733 242.387 63.1001 230.479C81.0049 218.142 96.6109 202.781 109.216 185.087C140.452 141.063 147.121 84.3709 181.428 42.0543C181.484 41.8478 181.342 41.6328 181.188 41.7908L181.085 41.7631Z" fill="#726D54"/>
<path d="M78.02 117.32C81.2631 134.784 85.2516 152.447 85.6921 170.266C86.1326 188.084 81.1248 201.722 75.9003 218.156C75.8581 218.318 75.8707 218.491 75.9359 218.646C76.0012 218.801 76.1156 218.931 76.2616 219.015C76.4077 219.099 76.5773 219.134 76.7446 219.113C76.9119 219.092 77.0676 219.016 77.1879 218.899C87.1854 207.262 89.3558 188.727 89.2466 173.895C89.1229 154.48 83.963 135.64 78.2547 117.272C78.2878 117.149 77.9855 117.2 78.0477 117.217L78.02 117.32Z" fill="#726D54"/>
<path d="M195.093 229.914C184.373 213.766 165.108 207.896 146.474 208.036C122.039 208.127 97.1077 215.452 73.1182 219.18C71.2475 219.453 71.8537 222.16 73.5517 222.283C113.951 224.811 161.225 191.744 193.887 230.852C194.437 231.531 195.559 230.659 195.082 229.955L195.093 229.914Z" fill="#726D54"/>
<path d="M149.921 67.1326C150.731 60.7119 143.901 58.7049 139.41 62.8781C135.313 66.7367 135.475 73.838 134.845 79.0018L131.11 109.508C130.882 111.35 133.856 111.35 134.047 109.477L136.349 87.9673C136.734 84.3756 137.052 80.7878 137.479 77.2071L137.864 73.6154C137.265 67.1269 140.933 64.9235 148.867 67.0052C148.874 67.5602 149.817 67.7685 149.894 67.1477L149.921 67.1326Z" fill="#726D54"/>
<path d="M150.384 67.7215C151.026 65.3268 151.895 62.9931 152.449 60.5969C152.579 59.6269 152.784 58.6685 153.061 57.7299C153.49 56.6278 155.736 54.7071 155.547 56.7364C155.37 57.397 156.296 57.6673 156.778 57.4424C159.774 56.0327 156.491 52.0552 153.678 53.3592C152.874 53.8507 152.199 54.5263 151.71 55.3302C151.22 56.1341 150.93 57.0431 150.864 57.9817C150.188 61.164 149.887 64.358 149.523 67.6234C149.385 68.1395 150.293 68.228 150.446 67.7381L150.384 67.7215Z" fill="#726D54"/>
<path d="M157.081 57.3025C158.702 54.8161 159.374 51.8101 160.975 49.23C161.808 47.8054 162.777 46.4645 163.868 45.2259C164.399 44.6038 164.971 44.0179 165.581 43.4722C167.47 41.3897 169.207 41.7001 170.749 44.3923C170.613 45.7277 172.62 45.6903 172.963 44.4104C173.439 39.7365 168.025 39.2372 165.069 41.3217C160.721 44.3826 155.902 51.7648 156.874 57.247C156.878 57.2818 156.891 57.3147 156.914 57.3414C156.937 57.3681 156.967 57.3873 157.001 57.3963C157.035 57.4054 157.07 57.4039 157.103 57.3921C157.136 57.3803 157.165 57.3587 157.185 57.3302L157.081 57.3025Z" fill="#726D54"/>
<path d="M171.547 45.2256C172.59 44.4235 173.515 43.4798 174.295 42.4219C175.706 40.9338 177.276 39.6034 178.976 38.4543C181.983 36.3268 185.403 34.847 189.017 34.1087L187.743 33.1479C187.903 39.01 185.973 43.3162 183.622 48.5276C183.282 49.2994 184.265 50.2707 184.911 49.5146C188.687 45.1941 189.868 38.7177 189.75 33.1105C189.743 32.9608 189.703 32.8144 189.634 32.6816C189.564 32.5488 189.466 32.4329 189.347 32.3418C189.227 32.2508 189.089 32.1869 188.942 32.1546C188.796 32.1224 188.644 32.1226 188.497 32.1552C184.538 32.9547 180.803 34.6037 177.549 36.9878C175.27 38.7005 171.583 42.027 171.183 44.9289C171.168 44.9746 171.168 45.0237 171.183 45.0694C171.197 45.1152 171.225 45.1555 171.263 45.185C171.301 45.2144 171.347 45.2316 171.395 45.2342C171.443 45.2367 171.491 45.2246 171.532 45.1995L171.547 45.2256Z" fill="#726D54"/>
<path d="M183.976 49.4412L185.509 48.8562C190.447 48.5642 192.191 50.0051 190.7 53.1678C190.685 56.372 188.289 60.5093 186.92 63.2179C184.183 68.547 180.188 72.8533 176.67 77.619C176.568 77.7969 176.527 78.0033 176.554 78.2068C176.58 78.4103 176.672 78.5996 176.816 78.746C176.961 78.8924 177.149 78.9879 177.353 79.0178C177.556 79.0477 177.764 79.0105 177.944 78.9117C182.217 75.5407 185.779 71.3588 188.423 66.6068C191.067 61.8548 192.743 56.6266 193.352 51.2232C193.81 44.7083 186.752 43.9676 183.927 49.2951L183.976 49.4412Z" fill="#726D54"/>
<path d="M177.092 79.1924C181.069 81.2462 181.725 83.2143 179.06 85.0965L176.091 88.3941C174.609 90.0325 173.127 91.671 171.624 93.3039C168.299 96.4181 165.431 99.9847 163.104 103.898C162.755 104.623 163.513 105.601 164.296 105.081C168.94 102.077 172.292 97.0231 175.767 92.6662C178.229 89.6086 183.644 84.8864 184.246 80.7333C185.051 75.3289 179.396 75.5616 176.917 78.7693C176.899 78.8011 176.892 78.8377 176.896 78.8738C176.901 78.91 176.917 78.9437 176.942 78.9701C176.967 78.9966 177 79.0144 177.036 79.021C177.072 79.0275 177.109 79.0225 177.142 79.0066L177.092 79.1924Z" fill="#726D54"/>
<path d="M164.293 105.589C172.856 101.378 181.566 97.3617 190.479 93.9971L189.307 92.8203C188.881 94.4098 188.461 95.9788 188.035 97.5683C187.609 99.1579 189.757 99.4237 190.105 98.1231C190.454 96.8226 190.786 94.9203 191.15 93.314C191.321 92.6741 190.68 91.8384 189.958 92.1317C180.959 95.696 172.336 100.137 164.213 105.39C164.196 105.41 164.186 105.435 164.183 105.462C164.181 105.488 164.187 105.515 164.2 105.538C164.213 105.561 164.233 105.579 164.257 105.59C164.282 105.601 164.309 105.605 164.335 105.6L164.293 105.589Z" fill="#726D54"/>
<path d="M189.14 99.3248C190.861 98.7478 192.63 98.3259 194.427 98.0641C196.016 97.8482 200.032 97.0216 198.897 100.014C197.762 103.007 194.422 104.457 192.937 107.268C192.723 107.653 192.978 108.274 193.498 108.237C194.668 107.938 195.765 107.407 196.724 106.676C197.683 105.944 198.483 105.027 199.078 103.979C200.267 102.439 201.882 100.305 201.538 98.1109C200.728 92.8493 191.216 96.9605 188.54 98.1684C187.859 98.4728 188.341 99.5753 189.02 99.359L189.14 99.3248Z" fill="#726D54"/>
<path d="M194.279 108.468C196.672 110.968 196.786 112.946 194.615 114.422C193.801 115.296 192.935 116.12 192.023 116.891C189.811 118.771 187.432 120.444 184.913 121.889C180.649 124.261 176.255 126.393 171.752 128.275C170.039 129.033 171.506 131.594 173.269 130.894C181.748 126.993 194.551 121.949 198.836 112.831C200.818 108.583 195.923 103.576 194.201 108.514L194.325 108.547L194.279 108.468Z" fill="#726D54"/>
<path d="M171.85 130.89C179.127 133.548 160.597 137.19 158.116 137.919C153.066 139.42 148.188 141.442 143.561 143.954C134.666 148.827 125.394 155.769 120.111 164.553C120.005 164.773 119.979 165.022 120.035 165.26C120.091 165.497 120.227 165.708 120.42 165.858C120.613 166.008 120.852 166.088 121.096 166.084C121.341 166.08 121.576 165.993 121.764 165.837C131.89 155.872 141.118 146.861 154.802 141.921C162.489 139.157 173.432 139.81 177.972 131.977C178.261 131.479 178.03 130.599 177.367 130.51C175.556 130.213 173.723 130.07 171.889 130.082C171.433 129.96 171.364 130.716 171.788 130.873L171.85 130.89Z" fill="#726D54"/>
<path d="M109.842 123.369C110.073 116.793 101.401 119.094 100.421 124.407C99.4412 129.72 104.293 135.467 106.466 139.944C110.91 149.033 113.389 158.415 116.443 167.973C116.513 168.227 116.682 168.442 116.911 168.572C117.14 168.702 117.412 168.736 117.666 168.666C117.92 168.596 118.136 168.429 118.266 168.2C118.396 167.971 118.429 167.701 118.359 167.447C117.034 159.9 114.796 152.539 111.694 145.526C110.564 142.79 109.36 140.077 108.036 137.399C107.211 135.674 106.313 133.973 105.415 132.272C102.995 129.212 104.153 126.38 108.854 123.746C109.205 124.172 109.841 123.789 109.853 123.328L109.842 123.369Z" fill="#726D54"/>
<path d="M110.285 122.957C109.255 112.724 100.642 102.296 103.445 91.9175L101.982 92.7422C103.614 92.959 105.191 93.4865 106.625 94.2962C106.76 94.3779 106.921 94.4071 107.076 94.3784C107.231 94.3497 107.37 94.2649 107.467 94.1404C107.563 94.0158 107.61 93.8601 107.599 93.7029C107.588 93.5458 107.519 93.3982 107.405 93.2883C106.126 91.8815 104.445 90.8985 102.59 90.4714C102.288 90.3905 101.966 90.4325 101.696 90.5882C101.425 90.7439 101.228 91.0005 101.147 91.3017C99.5449 96.2047 100.817 100.816 102.586 105.56C104.593 111.32 106.457 117.948 109.853 122.996C109.98 123.185 110.33 123.123 110.302 122.895L110.285 122.957Z" fill="#726D54"/>
<path d="M107.261 94.157C106.562 90.2973 106.125 86.3954 105.952 82.4778C105.666 80.7901 105.692 79.0648 106.029 77.3873C106.275 75.0635 107.744 74.8818 110.404 76.8781L111.265 77.9717C111.596 78.3923 112.275 77.9323 112.137 77.4529C111.088 73.8308 106.662 70.7199 104.411 75.2279C103.511 77.7815 103.258 80.5183 103.674 83.1949C103.901 87.0589 104.574 90.8845 105.679 94.596C105.738 94.8054 105.877 94.983 106.067 95.0899C106.257 95.1968 106.482 95.2242 106.691 95.1659C106.901 95.1077 107.079 94.9687 107.186 94.7795C107.293 94.5903 107.32 94.3664 107.261 94.157Z" fill="#726D54"/>
<path d="M112.166 77.9252C112.011 73.2421 112.468 68.5598 113.524 63.9957C114.204 61.4565 114.618 55.4386 119.163 58.6034C120.304 59.396 121.711 63.9991 121.937 64.812C124.874 72.2368 125.302 79.5865 127.024 87.2388C127.197 88.0819 128.32 87.7853 128.405 87.0556C129.012 81.3107 127.245 74.819 125.555 69.3657C124.427 65.789 122.358 57.446 118.786 55.5375C110.539 51.1153 110.679 74.3629 111.086 77.813C111.153 78.4727 112.167 78.5008 112.152 77.8109L112.166 77.9252Z" fill="#726D54"/>
<path d="M128.516 87.5503C130.306 86.1712 130.876 86.6116 130.236 88.9182L130.233 90.9973L130.219 98.3393C130.231 102.768 130.208 107.408 130.192 111.94C130.211 112.223 130.338 112.489 130.547 112.683C130.757 112.876 131.032 112.982 131.317 112.979C131.602 112.976 131.875 112.864 132.08 112.667C132.284 112.469 132.405 112.2 132.417 111.916C132.264 105.975 132.096 100.03 131.915 94.0809C131.833 91.4039 132.788 86.3495 130.964 84.0465C128.324 80.7284 126.78 85.2487 128.015 87.6814C128.161 87.964 128.636 87.8479 128.544 87.447L128.516 87.5503Z" fill="#726D54"/>
<path d="M132.414 107.291C132.448 109.709 132.081 112.115 131.327 114.412L132.983 114.856C133.299 113.08 133.243 111.257 132.82 109.502C132.663 108.929 131.699 108.715 131.445 109.333C131.028 110.201 130.826 111.158 130.858 112.121C130.889 113.085 131.153 114.027 131.626 114.868C131.699 115.004 131.816 115.111 131.958 115.173C132.099 115.234 132.257 115.246 132.406 115.207C132.556 115.167 132.687 115.079 132.779 114.956C132.872 114.832 132.92 114.682 132.916 114.528C132.864 112.899 132.786 111.285 132.708 109.671C132.709 109.509 132.651 109.353 132.545 109.231C132.438 109.109 132.291 109.03 132.13 109.009C131.97 108.988 131.807 109.026 131.673 109.116C131.538 109.206 131.442 109.341 131.401 109.498C130.937 111.371 130.914 113.326 131.335 115.211C131.367 115.333 131.435 115.444 131.531 115.528C131.626 115.612 131.744 115.666 131.87 115.683C131.996 115.701 132.125 115.68 132.239 115.625C132.353 115.569 132.448 115.481 132.512 115.371C133.773 112.814 134.198 109.925 133.727 107.112C133.556 106.092 131.935 106.344 131.955 107.345C132.045 109.942 131.71 112.535 130.963 115.023L133.106 115.309L133.021 111.237C132.998 110.081 133.133 109.409 132.347 108.534C132.283 108.47 132.206 108.419 132.122 108.384C132.038 108.349 131.948 108.332 131.857 108.332C131.766 108.332 131.676 108.351 131.593 108.386C131.509 108.421 131.433 108.473 131.37 108.538C130.637 109.448 130.784 110.062 130.822 111.245L130.995 115.319C130.957 115.602 131.034 115.889 131.208 116.116C131.383 116.343 131.64 116.492 131.924 116.53C132.208 116.568 132.496 116.492 132.723 116.319C132.951 116.145 133.1 115.888 133.137 115.605C133.9 112.935 134.158 110.145 133.899 107.379L132.128 107.613C132.708 109.996 132.504 112.502 131.545 114.758L132.722 114.919C132.37 113.253 132.407 111.529 132.83 109.881L131.517 109.728L131.683 114.574L132.978 114.213C132.618 113.592 132.421 112.892 132.403 112.176C132.386 111.46 132.549 110.751 132.878 110.115L131.503 109.945C131.8 111.405 131.797 112.91 131.494 114.368C131.435 114.587 131.466 114.821 131.58 115.017C131.694 115.214 131.881 115.357 132.101 115.416C132.32 115.475 132.554 115.444 132.751 115.331C132.948 115.218 133.092 115.031 133.15 114.812C133.837 112.315 133.838 109.679 133.154 107.18C133.129 107.12 133.084 107.069 133.028 107.036C132.972 107.004 132.906 106.99 132.841 106.998C132.777 107.005 132.716 107.034 132.669 107.079C132.622 107.124 132.591 107.183 132.581 107.247L132.414 107.291Z" fill="#726D54"/>
<path d="M158.814 109.807C160.367 108.564 161.758 107.1 163.367 105.982C164.891 105.144 166.358 104.207 167.758 103.176C167.837 103.094 167.892 102.991 167.914 102.879C167.937 102.767 167.926 102.651 167.885 102.545C167.844 102.438 167.772 102.346 167.68 102.278C167.588 102.211 167.478 102.171 167.364 102.163C163.616 102.155 159.465 106.132 158.427 109.593C158.361 109.84 158.645 109.939 158.814 109.807Z" fill="#726D54"/>
<path d="M199.125 99.0798C176.083 111.115 151.086 123.49 130.584 139.547C129.936 140.059 130.753 140.986 131.439 140.661C154.88 129.042 177.073 113.217 199.429 99.6036C199.484 99.5599 199.522 99.4981 199.536 99.429C199.55 99.36 199.54 99.2881 199.506 99.2262C199.472 99.1642 199.417 99.1162 199.352 99.0904C199.286 99.0646 199.213 99.0628 199.146 99.0853L199.125 99.0798Z" fill="#726D54"/>
<path d="M114.661 58.5919C117.982 76.8452 120.044 95.3027 120.83 113.834C121.018 122.159 120.806 130.488 120.417 138.814C119.916 147.641 117.807 156.834 118.56 165.62C118.572 165.797 118.645 165.965 118.766 166.095C118.888 166.225 119.051 166.309 119.227 166.333C119.404 166.357 119.583 166.319 119.735 166.226C119.886 166.133 120.001 165.99 120.059 165.823C125.361 149.764 123.362 128.651 122.478 111.908C121.719 93.9169 119.179 76.0421 114.895 58.5442C114.881 58.5225 114.861 58.5055 114.837 58.4955C114.813 58.4855 114.787 58.4829 114.762 58.488C114.736 58.4932 114.713 58.5059 114.695 58.5244C114.677 58.543 114.665 58.5665 114.661 58.5919Z" fill="#726D54"/>
<path d="M80.4798 208.187C82.5383 201.747 78.8743 196.207 74.4131 191.737C70.9082 188.253 66.8052 185.428 64.0019 181.314C62.8237 179.582 59.6628 175.726 63.5908 174.566C64.792 174.224 69.2302 177.537 70.3219 178.184C70.5774 178.329 70.88 178.366 71.163 178.289C71.446 178.211 71.6862 178.024 71.831 177.769C71.9757 177.515 72.0131 177.213 71.9348 176.931C71.8564 176.648 71.6689 176.408 71.4134 176.264C69.1072 174.849 62.9746 169.577 59.9546 171.49C57.7866 172.789 58.9472 176.574 59.6035 178.432C63.8625 190.282 80.3705 193.687 79.4417 208.086C79.407 208.63 80.2173 208.67 80.3652 208.2L80.4798 208.187Z" fill="#726D54"/>
<path d="M71.7472 176.84C70.0384 173.196 68.0713 169.77 66.0532 166.287C64.9138 164.768 63.9546 163.122 63.195 161.383C62.9441 160.497 62.1964 159.478 63.8532 158.927C63.8532 158.927 65.2378 159.143 64.9576 159.112C65.0288 159.111 65.0987 159.093 65.1622 159.061C65.2256 159.029 65.281 158.982 65.3239 158.926C65.3668 158.869 65.3963 158.804 65.4101 158.734C65.424 158.664 65.4218 158.592 65.4038 158.524C64.6196 155.57 59.8829 155.938 60.3162 159.373C60.6684 162.034 63.257 164.962 64.6613 167.175C66.7112 170.623 68.7775 174.008 71.1422 177.275C71.1966 177.369 71.286 177.437 71.3908 177.465C71.4957 177.494 71.6074 177.479 71.7013 177.425C71.7953 177.371 71.8637 177.282 71.8918 177.177C71.9198 177.073 71.905 176.961 71.8507 176.868L71.7472 176.84Z" fill="#726D54"/>
<path d="M65.27 158.443C64.7465 157.656 64.3336 156.801 64.0425 155.902C65.6739 153.706 67.078 153.352 68.3018 154.831C69.3964 155.611 70.416 156.492 71.3474 157.461C73.1256 159.277 75.122 160.868 77.2911 162.196C77.6431 162.29 78.0947 162.013 77.8615 161.64C75.9184 159.222 73.6815 157.055 71.2022 155.187C69.6912 153.787 67.7968 151.332 65.6046 151.232C64.8767 151.213 64.1662 151.454 63.6006 151.91C63.0351 152.367 62.6513 153.01 62.518 153.723C61.9649 155.788 63.3197 157.523 64.5214 159.084C64.9036 159.562 65.6466 158.943 65.3583 158.445L65.27 158.443Z" fill="#726D54"/>
<path d="M76.9518 161.64C75.5892 155.63 73.7637 149.734 71.4916 144.003C70.4687 141.3 69.6856 138.514 69.1513 135.676C68.9875 134.548 68.308 132.197 69.2224 131.27C70.1367 130.342 71.2157 131.45 72.9493 132.268C73.0343 132.335 73.1426 132.366 73.2501 132.353C73.3575 132.34 73.4553 132.285 73.5222 132.201C73.5891 132.116 73.6194 132.008 73.6065 131.901C73.5936 131.794 73.5386 131.696 73.4535 131.629C72.1536 130.243 70.7336 128.974 69.2102 127.837C69.0924 127.725 68.9478 127.646 68.7904 127.606C68.633 127.567 68.4681 127.569 68.3117 127.611C68.1552 127.654 68.0125 127.736 67.8973 127.85C67.7821 127.964 67.6983 128.105 67.6541 128.261C66.3512 133.62 67.7295 138.415 69.5398 143.502C71.4643 149.789 73.8988 155.909 76.8191 161.803L76.9518 161.64Z" fill="#726D54"/>
<path d="M72.6926 132.067C72.4033 127.763 71.3892 123.597 71.4436 119.253C71.5074 115.619 71.0415 108.082 78.2343 110.474C80.4731 111.229 83.1233 115.17 84.2131 116.9C89.614 125.94 92.5789 136.217 92.8194 146.731C92.8714 147.696 94.3789 147.702 94.3531 146.721C94.2167 138.681 92.4897 130.744 89.2711 123.366C86.9998 118.178 83.3614 110.72 77.585 108.508C66.4089 104.252 69.6136 127.326 72.4787 132.12C72.4928 132.142 72.513 132.159 72.5369 132.169C72.5608 132.179 72.5872 132.181 72.6125 132.176C72.6379 132.171 72.661 132.158 72.679 132.14C72.697 132.121 72.709 132.098 72.7134 132.072L72.6926 132.067Z" fill="#726D54"/>
<path d="M93.3741 147.477C102.506 138.241 98.2518 173.83 97.5339 176.758C94.5893 188.824 88.9492 199.437 83.0922 210.281C82.9607 210.533 82.9311 210.826 83.0094 211.099C83.0878 211.373 83.2683 211.606 83.5136 211.751C83.759 211.896 84.0507 211.942 84.3287 211.879C84.6066 211.817 84.8496 211.65 85.0078 211.414C97.2671 195.559 110.729 161.221 97.2458 142.717C97.1733 142.596 97.0706 142.497 96.9478 142.427C96.8251 142.358 96.6864 142.322 96.5455 142.322C96.4046 142.322 96.2663 142.359 96.1439 142.428C96.0215 142.498 95.9193 142.598 95.8473 142.718C94.7644 144.11 93.7021 145.507 92.6399 146.904C92.3056 147.323 93.0095 147.844 93.3741 147.477Z" fill="#726D54"/>
<path d="M105.814 215.506C109.941 212.042 113.035 207.514 114.759 202.415C116.603 197.687 117.719 192.61 120.23 188.127C121.461 185.935 129.162 175.165 129.336 182.137C129.37 182.361 129.483 182.565 129.655 182.712C129.828 182.859 130.047 182.939 130.274 182.938C130.501 182.937 130.719 182.855 130.89 182.706C131.06 182.557 131.171 182.352 131.202 182.128C131.458 180.532 131.594 178.919 131.607 177.303C131.605 177.134 131.564 176.967 131.488 176.816C131.411 176.665 131.301 176.533 131.166 176.43C131.031 176.328 130.874 176.258 130.708 176.225C130.541 176.192 130.369 176.198 130.205 176.241C113.916 182.785 115.869 203.243 105.078 214.778C104.978 214.874 104.921 215.007 104.92 215.145C104.918 215.284 104.971 215.417 105.068 215.517C105.165 215.616 105.298 215.673 105.437 215.675C105.576 215.677 105.709 215.624 105.809 215.527L105.814 215.506Z" fill="#726D54"/>
<path d="M130.345 182.761C135.18 180.631 140.449 179.656 145.732 179.915C147.107 179.89 148.475 180.114 149.771 180.576C151.59 180.577 151.949 181.558 150.831 183.494C150.973 183.757 151.059 184.047 151.082 184.346C151.105 184.644 151.064 184.944 150.964 185.225C150.863 185.507 150.705 185.765 150.498 185.981C150.291 186.198 150.041 186.368 149.764 186.482C147.968 188.546 144.226 190.087 141.987 191.656C141.789 191.803 141.653 192.017 141.604 192.258C141.554 192.499 141.595 192.749 141.718 192.962C141.842 193.175 142.039 193.336 142.273 193.414C142.507 193.491 142.761 193.481 142.988 193.384C146.364 191.634 161.581 183.874 153.112 179.37C146.2 175.681 135.807 177.698 130.111 182.389C129.943 182.521 130.119 182.856 130.345 182.761Z" fill="#726D54"/>
<path d="M142.141 193.976C143.957 193.246 145.417 192.353 146.885 194.163C148.353 195.972 147.748 195.412 146.254 196.516C143.757 198.547 141.122 200.429 138.478 202.265C134.651 204.869 129.758 206.898 126.56 210.135C126.452 210.245 126.382 210.387 126.363 210.541C126.343 210.694 126.374 210.849 126.452 210.983C126.529 211.117 126.649 211.222 126.792 211.282C126.935 211.341 127.093 211.352 127.243 211.314C131.689 210.292 135.936 206.784 139.663 204.22C142.759 202.107 148.185 199.246 150.172 195.973C150.611 195.378 150.835 194.652 150.808 193.914C150.78 193.175 150.502 192.467 150.019 191.905C147.859 189.534 143.694 191.162 141.408 192.408C140.626 192.84 141.154 194.265 142.049 193.907L142.141 193.976Z" fill="#726D54"/>
<path d="M146.127 208.917C150.413 206.503 154.625 203.87 159.146 201.741C161.808 200.401 164.6 199.333 167.478 198.553C169.153 198.122 170.862 197.84 172.587 197.709C174.967 197.107 176.883 198.24 178.044 201.029C177.266 201.861 178.509 203.101 179.266 202.264C179.608 201.965 179.885 201.598 180.078 201.187C180.271 200.775 180.376 200.328 180.387 199.874C180.398 199.42 180.315 198.968 180.143 198.547C179.971 198.126 179.713 197.745 179.386 197.429C177.393 195.257 173.275 195.968 170.794 196.365C161.516 197.862 153.424 203.217 146.148 208.923L146.127 208.917Z" fill="#726D54"/>
<path d="M178.59 202.968C182.992 203.545 187.271 204.834 191.26 206.783C193.346 207.843 195.299 209.146 197.077 210.665C197.856 211.317 204.132 218.375 201.07 218.373C200.774 218.385 200.489 218.492 200.258 218.677C200.027 218.861 199.862 219.115 199.785 219.401C199.709 219.686 199.725 219.988 199.833 220.264C199.941 220.54 200.134 220.774 200.384 220.933C202.216 221.657 203.688 223.073 204.481 224.872C205.275 226.671 205.325 228.709 204.622 230.543C203.785 230.849 203.852 232.173 204.835 232.148C212.87 231.978 204.309 220.944 202.066 218.795L201.088 221.121C207.766 221.871 204.298 214.193 202.031 211.639C199.145 208.347 195.557 205.741 191.532 204.011C187.506 202.282 183.144 201.473 178.767 201.644C178.07 201.678 177.839 202.789 178.606 202.906L178.59 202.968Z" fill="#726D54"/>
<path d="M140.981 211.476C148.18 211.193 153.597 218.64 157.69 223.654C160.132 226.631 162.66 232.685 166.438 234.405C169.823 235.932 173.007 233.577 171.426 230.033C170.865 228.732 169.05 229.707 169.28 230.919C169.837 233.812 163.517 226.919 163.354 226.698C162.612 225.658 161.823 224.628 161.028 223.619C158.614 220.54 156.001 217.623 153.205 214.885C149.493 211.346 146.08 209.258 140.862 210.427C140.294 210.562 140.419 211.503 141.007 211.461L140.981 211.476Z" fill="#726D54"/>
<path d="M170.519 230.852C170.541 235.903 177.54 240.677 181.578 242.666C182.941 243.297 184.605 243.875 185.79 242.6C187.24 240.997 186.082 239.027 184.702 237.883C183.87 237.262 183.071 238.42 183.408 239.152C184.362 241.222 181.408 239.988 180.471 239.427C178.917 238.517 177.472 237.433 176.167 236.194C174.401 234.503 172.867 231.946 170.776 230.722C170.749 230.706 170.719 230.696 170.688 230.696C170.656 230.695 170.626 230.703 170.599 230.719C170.572 230.734 170.55 230.757 170.535 230.784C170.519 230.811 170.512 230.842 170.513 230.873L170.519 230.852Z" fill="#726D54"/>
<path d="M184.537 238.746C187.904 240.993 191.57 242.757 195.427 243.987C195.558 244.02 195.695 244.023 195.827 243.995C195.959 243.968 196.083 243.911 196.19 243.829C196.298 243.748 196.385 243.643 196.446 243.523C196.507 243.403 196.54 243.27 196.543 243.136C196.285 239.46 193.986 234.375 189.97 233.542C189.08 233.304 188.229 234.492 189.018 235.19C190.227 236.031 191.383 236.947 192.478 237.931C193.759 239.399 194.564 241.219 194.785 243.152L195.88 242.294C192.032 241.366 188.271 240.107 184.639 238.53C184.615 238.534 184.591 238.545 184.573 238.561C184.554 238.578 184.541 238.6 184.534 238.624C184.528 238.648 184.529 238.673 184.536 238.697C184.544 238.721 184.559 238.742 184.578 238.757L184.537 238.746Z" fill="#726D54"/>
<path d="M189.635 234.381C189.387 233.319 193.174 234.755 193.426 234.889C194.649 235.46 195.793 236.408 196.968 237.077C198.871 238.155 200.834 239.124 202.848 239.98C204.835 240.844 208.966 243.566 211.233 242.226C215.983 239.406 205.213 232.56 203.673 231.35L203.203 233.105C204.395 233.055 205.563 232.758 206.632 232.232C206.791 232.182 206.926 232.078 207.015 231.938C207.104 231.798 207.141 231.631 207.119 231.466C207.097 231.302 207.017 231.15 206.894 231.039C206.771 230.927 206.613 230.861 206.447 230.854C205.18 230.726 203.901 230.802 202.658 231.078C202.48 231.126 202.317 231.219 202.186 231.349C202.055 231.479 201.961 231.641 201.914 231.819C201.866 231.997 201.866 232.185 201.915 232.363C201.963 232.541 202.057 232.703 202.188 232.833L206.797 236.834C207.305 237.258 208.912 238.219 209.105 238.824C209.75 240.723 208.512 239.794 207.537 239.621C202.923 238.871 197.644 235.134 193.462 233.017C192.271 232.411 190.373 231.128 189.199 232.362C189.024 232.495 188.884 232.668 188.791 232.866C188.697 233.065 188.653 233.283 188.662 233.502C188.67 233.722 188.732 233.936 188.841 234.126C188.95 234.317 189.103 234.479 189.288 234.598C189.314 234.626 189.35 234.644 189.388 234.65C189.426 234.655 189.465 234.648 189.498 234.629C189.531 234.61 189.557 234.58 189.571 234.544C189.586 234.509 189.587 234.469 189.577 234.432L189.635 234.381Z" fill="#726D54"/>
<path d="M152.966 181.322C145.141 182.035 139.053 185.958 133.502 191.351C125.96 198.712 119.686 206.722 111.677 213.67C110.812 214.412 111.907 215.546 112.792 215.141C129.236 207.688 133.783 186.493 153.2 182.934C154.107 182.778 153.898 181.24 152.966 181.322Z" fill="#726D54"/>
<path d="M137.876 99.6608C137.838 105.653 138.137 111.642 138.772 117.602C138.864 118.334 139.966 118.364 139.952 117.586C139.782 111.595 139.28 105.618 138.447 99.6812C138.391 99.3121 137.866 99.2821 137.87 99.6815L137.876 99.6608Z" fill="#726D54"/>
<path d="M139.897 89.7147C141.135 96.109 140.13 102.677 140.591 109.239C140.61 109.664 141.299 109.827 141.357 109.444C142.69 102.898 141.007 96.3401 140.097 89.879C140.131 89.7551 139.87 89.8179 139.911 89.829L139.897 89.7147Z" fill="#726D54"/>
<path d="M142.617 95.4661C142.442 98.5777 142.541 101.699 142.914 104.794C142.88 104.918 143.266 104.889 143.273 104.78C143.444 101.675 143.342 98.5605 142.97 95.4723C143.026 95.2658 142.61 95.243 142.639 95.3835L142.617 95.4661Z" fill="#726D54"/>
<path d="M144.321 88.1122C144.296 93.4498 144.555 98.7853 145.098 104.096C145.199 104.632 146.017 104.475 146.02 103.967C145.925 98.6866 145.545 93.4146 144.882 88.1739C144.846 87.8103 144.269 87.8106 144.299 88.1948L144.321 88.1122Z" fill="#726D54"/>
<path d="M144.978 73.486C147.073 80.8071 148.113 88.3868 148.067 95.9971C148.095 96.1345 148.169 96.258 148.278 96.3462C148.388 96.4344 148.524 96.4817 148.665 96.4798C148.805 96.478 148.94 96.4271 149.047 96.3361C149.153 96.245 149.224 96.1195 149.247 95.9815C149.641 88.26 148.372 80.5416 145.526 73.3452C145.402 72.9801 144.843 73.1621 144.978 73.486Z" fill="#726D54"/>
<path d="M150.419 76.8687C150.35 80.8567 150.557 84.845 151.037 88.8055C151.162 89.4143 152.054 89.2329 152.074 88.6629C152.068 84.7078 151.784 80.7577 151.225 76.8414C151.181 76.3428 150.386 76.3289 150.419 76.8687Z" fill="#726D54"/>
<path d="M153.624 72.1959C153.359 75.7432 153.399 79.307 153.743 82.8483C153.865 83.6334 154.92 83.3408 155.009 82.6787C155.108 79.1749 154.92 75.6686 154.445 72.1948C154.407 71.6756 153.611 71.6616 153.624 72.1959Z" fill="#726D54"/>
<path d="M158.66 61.2658C158.031 65.4959 157.776 69.7736 157.898 74.0494C157.934 74.413 158.498 74.5421 158.588 74.1237C159.184 69.8656 159.401 65.5628 159.237 61.2655C159.331 60.9145 158.692 60.8982 158.66 61.2658Z" fill="#726D54"/>
<path d="M161.577 55.7635C161.208 59.6251 160.698 63.5155 160.548 67.3913C160.465 67.701 161.061 67.7944 161.107 67.5411C161.746 63.6635 162.07 59.7232 162.497 55.8107C162.646 55.2533 161.612 55.2197 161.561 55.8254L161.577 55.7635Z" fill="#726D54"/>
<path d="M164.948 48.2367C164.276 53.1456 163.328 58.0912 163.191 63.077C163.19 63.2333 163.247 63.3845 163.351 63.5021C163.454 63.6197 163.597 63.6956 163.753 63.7155C163.908 63.7354 164.065 63.698 164.195 63.6103C164.325 63.5226 164.418 63.3906 164.456 63.2392C165.391 58.3413 166.071 53.3983 166.494 48.4297C166.585 47.5913 165.107 47.3943 164.989 48.2478L164.948 48.2367Z" fill="#726D54"/>
<path d="M138.436 124.57C146.185 116.026 154.171 107.257 161.345 98.2053C161.454 98.0965 161.515 97.9491 161.514 97.7954C161.514 97.6418 161.452 97.4945 161.343 97.386C161.234 97.2775 161.086 97.2167 160.932 97.2169C160.778 97.2171 160.63 97.2784 160.522 97.3872C151.861 105.293 144.239 114.261 137.836 124.077C137.803 124.119 137.778 124.167 137.764 124.219C137.749 124.27 137.745 124.324 137.752 124.377C137.758 124.43 137.775 124.481 137.801 124.528C137.827 124.575 137.862 124.616 137.905 124.649C137.947 124.682 137.995 124.706 138.047 124.721C138.098 124.735 138.152 124.739 138.205 124.733C138.259 124.727 138.31 124.71 138.357 124.684C138.403 124.658 138.444 124.623 138.478 124.581L138.436 124.57Z" fill="#726D54"/>
<path d="M143.33 112.185C147.062 107.109 151.127 102.285 155.499 97.7451C155.553 97.6912 155.595 97.6273 155.624 97.5569C155.653 97.4866 155.668 97.4113 155.668 97.3352C155.668 97.2591 155.652 97.1838 155.623 97.1135C155.594 97.0433 155.551 96.9795 155.496 96.9258C155.442 96.872 155.378 96.8295 155.308 96.8004C155.237 96.7714 155.162 96.7565 155.085 96.7566C155.009 96.7567 154.934 96.7719 154.863 96.8011C154.793 96.8303 154.729 96.873 154.675 96.9269C149.892 101.194 145.796 106.172 142.532 111.684C142.485 111.789 142.479 111.907 142.513 112.017C142.548 112.126 142.622 112.22 142.721 112.279C142.82 112.338 142.937 112.359 143.05 112.338C143.163 112.317 143.265 112.255 143.336 112.165L143.33 112.185Z" fill="#726D54"/>
<path d="M146.902 101.172C152.297 95.8568 158.066 90.9328 164.165 86.4377C164.587 86.108 164.036 85.4295 163.59 85.6861C157.182 89.849 151.418 94.9239 146.483 100.75C146.249 101.042 146.627 101.453 146.902 101.172Z" fill="#726D54"/>
<path d="M150.458 92.456C156.249 88.3212 162.438 84.603 168.181 80.4777C168.278 80.4104 168.346 80.3093 168.372 80.1943C168.397 80.0793 168.379 79.9589 168.32 79.8569C168.26 79.7548 168.165 79.6785 168.052 79.6431C167.94 79.6078 167.818 79.6158 167.711 79.6658C161.515 83.2282 155.59 87.2386 149.982 91.6647C149.494 91.9984 149.964 92.8103 150.458 92.456Z" fill="#726D54"/>
<path d="M155.876 85.3227C160.504 81.3853 165.524 77.9733 170.248 74.1723C170.638 73.8784 170.157 73.3515 169.754 73.5311C164.332 76.4529 159.286 80.0189 154.725 84.1515C153.919 84.8425 155.075 85.9932 155.876 85.3227Z" fill="#726D54"/>
<path d="M158.884 77.0793C163.82 73.9769 169.059 71.1546 173.694 67.7721C174.089 67.4575 173.757 66.7932 173.269 67.0387C168.094 69.7895 163.383 73.3729 158.513 76.5594C158.134 76.8121 158.483 77.4145 158.862 77.1618L158.884 77.0793Z" fill="#726D54"/>
<path d="M161.225 71.1573C163.835 69.2016 166.5 67.3194 169.218 65.5107C171.783 64.0358 174.261 62.4173 176.642 60.663C176.938 60.3882 176.624 59.8175 176.232 59.9559C173.395 61.3347 170.714 63.0121 168.234 64.9594C165.689 66.7849 163.187 68.6665 160.73 70.6042C160.425 70.8322 160.852 71.3893 161.163 71.1407L161.225 71.1573Z" fill="#726D54"/>
<path d="M165.418 63.8731L172.56 59.7463C174.789 58.6272 176.911 57.3071 178.898 55.8026C179.104 55.6143 178.882 55.2008 178.61 55.3049C176.348 56.3534 174.19 57.6125 172.166 59.0653C169.844 60.5232 167.517 62.0017 165.175 63.454C164.928 63.6311 165.156 64.024 165.418 63.8731Z" fill="#726D54"/>
<path d="M172.522 56.3286L179.535 52.4329C179.574 52.4082 179.602 52.369 179.612 52.3239C179.622 52.2789 179.613 52.2317 179.588 52.1927C179.563 52.1538 179.524 52.1263 179.479 52.1163C179.434 52.1062 179.386 52.1145 179.347 52.1393L172.421 56.1246C172.393 56.2278 172.349 56.393 172.522 56.3286Z" fill="#726D54"/>
<path d="M109.253 135.093C109.28 135.1 109.309 135.096 109.334 135.082C109.359 135.068 109.377 135.045 109.384 135.017C109.391 134.99 109.387 134.961 109.373 134.936C109.359 134.911 109.335 134.894 109.308 134.886C109.294 134.883 109.28 134.882 109.266 134.883C109.252 134.885 109.239 134.89 109.227 134.897C109.214 134.904 109.204 134.913 109.195 134.924C109.187 134.935 109.18 134.948 109.177 134.962C109.173 134.975 109.172 134.989 109.174 135.003C109.176 135.017 109.18 135.031 109.187 135.043C109.194 135.055 109.204 135.066 109.215 135.074C109.226 135.083 109.239 135.089 109.253 135.093Z" fill="#726D54"/>
<path d="M109.31 135.374C111.455 137.864 113.417 140.504 115.182 143.275C116.7 145.894 117.924 148.612 119.507 151.071C119.709 151.391 120.252 151.271 120.156 150.803C118.201 145.013 113.672 139.551 109.591 135.073C109.438 134.899 109.195 135.143 109.327 135.312L109.31 135.374Z" fill="#726D54"/>
<path d="M112.279 133.403C114.779 137.657 117.04 142.224 119.922 146.293C119.968 146.346 120.032 146.381 120.102 146.391C120.172 146.402 120.243 146.387 120.304 146.351C120.364 146.314 120.409 146.257 120.432 146.19C120.454 146.123 120.452 146.051 120.426 145.985C118.183 141.601 115.235 137.448 112.636 133.233C112.605 133.207 112.568 133.192 112.528 133.188C112.488 133.184 112.448 133.193 112.414 133.213C112.379 133.233 112.352 133.263 112.335 133.299C112.319 133.335 112.314 133.375 112.321 133.414L112.279 133.403Z" fill="#726D54"/>
<path d="M111.001 124.675C113.606 129.385 116.502 133.93 119.671 138.283C119.885 138.561 120.25 138.194 120.124 137.917C117.665 133.169 114.925 128.571 111.919 124.147C111.565 123.565 110.646 124.093 111.001 124.675Z" fill="#726D54"/>
<path d="M111.276 119.261L116.274 126.862C117.589 129.258 119.169 131.5 120.985 133.546C121.21 133.783 121.692 133.558 121.562 133.213C120.403 130.75 118.972 128.422 117.297 126.274C115.622 123.745 113.956 121.211 112.299 118.673C111.888 118.054 110.864 118.642 111.276 119.261Z" fill="#726D54"/>
<path d="M106.79 105.691C112.005 112.067 116.181 119.093 121.165 125.584C121.461 125.973 122.035 125.485 121.808 125.093C118.07 118.006 112.274 111.475 107.095 105.463C106.942 105.289 106.698 105.534 106.831 105.702L106.79 105.691Z" fill="#726D54"/>
<path d="M112.203 106.854C114.983 110.807 117.604 114.939 120.652 118.72C120.851 118.973 121.272 118.643 121.1 118.376C118.603 114.277 115.519 110.464 112.702 106.567C112.493 106.268 111.995 106.555 112.203 106.854Z" fill="#726D54"/>
<path d="M111.838 99.1891C114.478 104.225 117.419 109.099 120.644 113.784C120.857 114.063 121.237 113.722 121.112 113.445C118.477 108.424 115.548 103.561 112.342 98.8816C112.296 98.8287 112.232 98.7938 112.162 98.7832C112.092 98.7726 112.021 98.787 111.96 98.8237C111.9 98.8605 111.855 98.9173 111.833 98.9841C111.81 99.0509 111.812 99.1236 111.838 99.1891Z" fill="#726D54"/>
<path d="M111.895 96.3278L119.327 105.112C119.664 105.512 120.266 104.921 119.903 104.536L112.471 95.752C112.134 95.352 111.558 95.9279 111.895 96.3278Z" fill="#726D54"/>
<path d="M112.039 89.9941L115.982 94.9891C117.186 96.7274 118.528 98.367 119.994 99.892C120.045 99.9446 120.114 99.9767 120.187 99.9822C120.26 99.9878 120.333 99.9663 120.391 99.922C120.45 99.8776 120.49 99.8135 120.504 99.7416C120.518 99.6698 120.505 99.5952 120.468 99.5321C119.318 97.8817 118.045 96.3202 116.66 94.8609L112.282 89.7494C112.129 89.5756 111.906 89.8258 112.039 89.9941Z" fill="#726D54"/>
<path d="M113.615 84.4425C115.627 87.9466 117.433 91.7271 119.657 95.0224C119.666 95.0467 119.68 95.069 119.699 95.0878C119.717 95.1067 119.738 95.1218 119.762 95.1324C119.786 95.1429 119.812 95.1486 119.838 95.1492C119.864 95.1498 119.89 95.1452 119.915 95.1358C119.939 95.1263 119.961 95.1122 119.98 95.0941C119.999 95.0761 120.014 95.0545 120.025 95.0306C120.035 95.0067 120.041 94.981 120.042 94.9549C120.042 94.9288 120.038 94.9028 120.028 94.8785C118.319 91.2345 115.957 87.7917 113.959 84.4018C113.948 84.3816 113.933 84.3636 113.916 84.3489C113.898 84.3342 113.878 84.3231 113.856 84.3162C113.812 84.3023 113.764 84.3064 113.723 84.3277C113.682 84.349 113.651 84.3857 113.638 84.4297C113.624 84.4737 113.628 84.5214 113.649 84.5623L113.615 84.4425Z" fill="#726D54"/>
<path d="M122.372 75.2833L120.637 82.5847L120.741 82.6125L122.496 75.3166L122.372 75.2833Z" fill="#726D54"/>
<path d="M123.298 81.3506L120.837 89.5416C120.759 89.8306 121.194 89.9471 121.292 89.6636C122.039 86.8767 122.78 84.1105 123.65 81.445C123.705 81.2385 123.353 81.1442 123.298 81.3506Z" fill="#726D54"/>
<path d="M124.434 89.2001C122.038 92.6594 120.442 96.6073 119.762 100.759C119.69 101.027 120.126 101.056 120.196 100.875C121.478 96.985 123.098 93.2138 125.036 89.6047C125.057 89.5265 125.051 89.4434 125.019 89.3688C124.988 89.2941 124.932 89.2322 124.861 89.1928C124.79 89.1534 124.707 89.1388 124.627 89.1514C124.547 89.1639 124.473 89.2029 124.418 89.262L124.434 89.2001Z" fill="#726D54"/>
<path d="M125.914 92.5394C124.24 96.0057 122.82 99.5887 121.666 103.26C121.642 103.348 121.655 103.441 121.7 103.52C121.746 103.599 121.82 103.656 121.908 103.68C121.996 103.703 122.09 103.691 122.169 103.646C122.247 103.6 122.305 103.526 122.328 103.438C124.139 100.108 125.716 96.6567 127.049 93.1089C127.253 92.3451 126.271 91.7056 125.936 92.4568L125.914 92.5394Z" fill="#726D54"/>
<path d="M125.614 97.6363C124.421 101.012 123.104 104.354 122.165 107.775C121.971 108.498 123.132 109.052 123.445 108.295C124.898 104.945 125.989 101.454 127.219 98.0222C127.49 97.0107 125.979 96.6057 125.625 97.595L125.614 97.6363Z" fill="#726D54"/>
<path d="M125.932 105.974C123.281 111.445 121.249 117.194 119.874 123.114C119.867 123.237 119.902 123.359 119.975 123.459C120.047 123.559 120.152 123.632 120.271 123.664C120.39 123.696 120.517 123.685 120.63 123.635C120.742 123.584 120.834 123.496 120.889 123.386C122.961 117.724 124.593 111.966 126.892 106.365C127.042 105.807 126.169 105.419 125.932 105.974Z" fill="#726D54"/>
<path d="M126.341 116.705C123.742 121.833 122.102 127.391 121.502 133.109C121.397 133.501 122.087 133.575 122.185 133.292C123.513 127.823 125.143 122.431 127.067 117.143C127.189 116.688 126.512 116.396 126.313 116.808L126.341 116.705Z" fill="#726D54"/>
<path d="M128.736 120.355C125.599 126.955 123.24 133.897 121.706 141.04C121.679 141.144 121.693 141.255 121.747 141.349C121.801 141.442 121.89 141.51 121.995 141.538C122.099 141.566 122.21 141.552 122.304 141.498C122.397 141.444 122.465 141.355 122.493 141.251C125.242 134.553 127.061 127.518 129.795 120.794C129.96 120.175 128.985 119.758 128.736 120.355Z" fill="#726D54"/>
<path d="M128.629 127.296C125.992 133.621 123.926 140.169 122.455 146.861C122.445 147 122.483 147.138 122.564 147.251C122.645 147.365 122.763 147.447 122.898 147.483C123.033 147.519 123.176 147.507 123.303 147.449C123.43 147.391 123.533 147.291 123.593 147.166C125.674 140.643 127.128 133.975 129.416 127.507C129.554 126.991 128.809 126.791 128.629 127.296Z" fill="#726D54"/>
<path d="M140.371 125.133C139.691 127.672 138.871 130.151 138.129 132.674C137.99 133.19 138.741 133.369 138.915 132.885C139.741 130.385 140.56 127.905 141.407 125.41C141.578 124.77 140.563 124.498 140.371 125.133Z" fill="#726D54"/>
<path d="M143.191 124.384L141.161 131.96C141.128 132.08 141.145 132.209 141.208 132.317C141.271 132.425 141.374 132.504 141.494 132.536C141.615 132.568 141.744 132.552 141.852 132.489C141.96 132.427 142.039 132.324 142.072 132.204L144.495 124.733C144.727 123.866 143.366 123.479 143.149 124.372L143.191 124.384Z" fill="#726D54"/>
<path d="M147.237 120.379C146.513 123.083 145.783 125.808 145.058 128.513C145.05 128.636 145.086 128.757 145.158 128.858C145.23 128.958 145.335 129.03 145.454 129.062C145.574 129.094 145.701 129.084 145.813 129.033C145.926 128.983 146.017 128.895 146.072 128.784C146.942 126.119 147.838 123.438 148.728 120.778C148.999 119.767 147.41 119.319 147.134 120.351L147.237 120.379Z" fill="#726D54"/>
<path d="M153.658 111.656C152.029 115.969 150.744 120.404 149.815 124.92C149.66 125.498 150.588 126.012 150.895 125.364C152.696 121.059 154.147 116.616 155.231 112.077C155.287 111.869 155.258 111.648 155.15 111.461C155.041 111.274 154.864 111.138 154.655 111.082C154.446 111.026 154.224 111.055 154.037 111.163C153.85 111.27 153.714 111.448 153.658 111.656Z" fill="#726D54"/>
<path d="M158.067 112.262C157.744 115.538 156.635 118.516 156.1 121.758C155.989 122.171 156.607 122.513 156.859 122.072C158.199 118.975 158.89 115.636 158.888 112.261C158.918 111.737 158.138 111.75 158.067 112.262Z" fill="#726D54"/>
<path d="M162.283 113.591C161.566 115.766 160.845 117.962 160.149 120.144C160.072 120.433 160.507 120.549 160.605 120.266C161.197 118.057 162.022 115.888 162.717 113.707C162.795 113.418 162.36 113.302 162.283 113.591Z" fill="#726D54"/>
<path d="M165.199 112.646C164.645 114.711 163.968 116.742 163.332 118.784C163.333 118.849 163.355 118.913 163.395 118.965C163.435 119.017 163.491 119.054 163.555 119.071C163.618 119.088 163.686 119.084 163.746 119.059C163.807 119.034 163.858 118.99 163.891 118.934C164.61 116.914 165.308 114.888 166.006 112.863C166.139 112.367 165.358 112.136 165.199 112.646Z" fill="#726D54"/>
<path d="M171.572 103.933C170.044 107.775 168.889 111.755 168.121 115.819C168.125 115.919 168.161 116.015 168.224 116.094C168.287 116.172 168.373 116.228 168.47 116.254C168.567 116.28 168.67 116.275 168.764 116.238C168.857 116.202 168.937 116.136 168.991 116.052C170.527 112.212 171.689 108.234 172.462 104.171C172.623 103.573 171.748 103.36 171.572 103.933Z" fill="#726D54"/>
<path d="M176.949 102.585L174.068 109.359C173.974 109.71 174.406 110.002 174.563 109.668C175.602 107.446 176.62 105.219 177.659 102.997C177.792 102.502 177.143 102.107 176.949 102.585Z" fill="#726D54"/>
<path d="M130.056 145.159L140.933 142.497C141.001 142.47 141.056 142.418 141.088 142.353C141.12 142.287 141.128 142.212 141.108 142.142C141.089 142.071 141.045 142.01 140.983 141.97C140.922 141.93 140.849 141.914 140.776 141.924L129.968 144.825C129.761 144.77 129.863 145.217 130.056 145.159Z" fill="#726D54"/>
<path d="M131.912 141.629L146.407 139.627C146.912 139.563 146.645 138.739 146.176 138.835L131.721 140.936C131.277 141.016 131.516 141.7 131.912 141.629Z" fill="#726D54"/>
<path d="M134.128 137.997C139.892 137.864 145.644 137.433 151.362 136.707C151.893 136.628 151.74 135.79 151.226 135.807C145.499 136.117 139.794 136.73 134.134 137.644C133.927 137.589 133.905 138.003 134.045 137.974L134.128 137.997Z" fill="#726D54"/>
<path d="M142.296 135.34C147.129 134.778 151.999 134.603 156.861 134.817C157.609 134.84 157.613 133.669 156.844 133.64C151.975 133.433 147.099 133.605 142.258 134.157C141.435 134.246 141.446 135.532 142.269 135.443L142.296 135.34Z" fill="#726D54"/>
<path d="M146.777 131.208C151.994 131.035 157.268 131.475 162.466 131.208C162.547 131.189 162.62 131.144 162.671 131.079C162.723 131.013 162.75 130.932 162.749 130.849C162.748 130.766 162.719 130.686 162.665 130.622C162.612 130.558 162.538 130.514 162.457 130.497C157.259 130.133 152.04 130.215 146.857 130.743C146.588 130.67 146.574 131.22 146.865 131.209L146.777 131.208Z" fill="#726D54"/>
<path d="M154.846 127.263L161.466 126.824C163.442 126.821 165.411 126.607 167.34 126.186C167.868 126.04 167.723 125.337 167.21 125.266C165.128 125.239 163.048 125.424 161.004 125.816L154.822 126.527C154.322 126.57 154.304 127.383 154.83 127.325L154.846 127.263Z" fill="#726D54"/>
<path d="M160.85 124.071L167.194 123.668C169.099 123.676 170.996 123.441 172.841 122.969C173.248 122.857 173.321 122.168 172.834 122.082C170.964 121.868 169.075 121.882 167.209 122.124L160.881 122.464C159.893 122.509 159.905 124.038 160.878 123.967L160.85 124.071Z" fill="#726D54"/>
<path d="M168.566 118.549L176.221 118.055C178.519 118.122 180.817 117.898 183.057 117.387C183.45 117.249 183.549 116.545 183.056 116.48C180.793 116.335 178.521 116.469 176.292 116.88L168.661 117.778C168.203 117.832 168.197 118.516 168.65 118.483L168.566 118.549Z" fill="#726D54"/>
<path d="M176.807 112.305C180.413 112.421 184.022 112.226 187.594 111.721C188.151 111.628 187.982 110.852 187.478 110.828C183.896 110.865 180.324 111.203 176.799 111.838C176.503 111.869 176.49 112.331 176.807 112.305Z" fill="#726D54"/>
<path d="M184.275 108.62L189.746 108.493C190.015 108.565 190.035 107.995 189.743 108.005L184.26 108.262C184.212 108.263 184.167 108.284 184.135 108.319C184.103 108.354 184.086 108.4 184.088 108.448C184.09 108.495 184.111 108.54 184.146 108.572C184.181 108.604 184.227 108.622 184.275 108.62Z" fill="#726D54"/>
<path d="M182.848 101.356C180.969 104.393 179.019 107.366 177.351 110.526C177.33 110.589 177.331 110.658 177.353 110.721C177.376 110.784 177.419 110.838 177.476 110.874C177.533 110.909 177.601 110.925 177.667 110.918C177.734 110.911 177.797 110.882 177.845 110.835C179.878 107.884 181.567 104.73 183.348 101.645C183.367 101.612 183.379 101.576 183.384 101.539C183.389 101.501 183.386 101.463 183.377 101.426C183.367 101.39 183.35 101.356 183.327 101.326C183.304 101.296 183.275 101.27 183.242 101.251C183.209 101.233 183.173 101.22 183.136 101.215C183.098 101.21 183.06 101.213 183.023 101.222C182.987 101.232 182.952 101.249 182.922 101.272C182.892 101.295 182.867 101.323 182.848 101.356Z" fill="#726D54"/>
<path d="M86.3724 197.707C88.7444 194.231 90.5242 190.386 91.6401 186.33C91.8448 185.566 90.6799 184.944 90.2405 185.756C89.4836 187.404 88.8363 189.101 88.3027 190.834C87.4983 193.008 86.5489 195.144 85.5429 197.242C85.2901 197.771 86.0519 198.241 86.3517 197.702L86.3724 197.707Z" fill="#726D54"/>
<path d="M86.2697 190.223C89.2406 186.66 91.4684 182.541 92.823 178.106C92.8305 177.983 92.7951 177.861 92.7228 177.761C92.6506 177.661 92.5459 177.589 92.4265 177.557C92.3071 177.525 92.1804 177.535 92.0677 177.586C91.9551 177.636 91.8635 177.724 91.8085 177.834C90.2264 182.063 88.2786 186.146 85.9869 190.037C85.926 190.264 86.1371 190.387 86.2697 190.223Z" fill="#726D54"/>
<path d="M87.6719 181.926C90.0721 179.11 91.8221 175.802 92.7981 172.236C92.964 171.617 92.0462 171.15 91.7243 171.771C90.3052 175.073 88.6483 178.267 86.7666 181.329C86.3729 181.887 87.2796 182.396 87.6885 181.864L87.6719 181.926Z" fill="#726D54"/>
<path d="M88.2395 175.086C91.924 170.47 94.7482 165.232 96.578 159.619C96.6201 159.469 96.6055 159.308 96.5371 159.167C96.4687 159.026 96.3512 158.915 96.2066 158.855C96.062 158.794 95.9002 158.789 95.7518 158.839C95.6033 158.889 95.4784 158.991 95.4005 159.127C92.5944 164.216 90.3818 169.575 87.3383 174.557C86.9805 175.147 87.8513 175.624 88.2395 175.086Z" fill="#726D54"/>
<path d="M89.2519 165.179C91.4567 162.04 93.2499 158.631 94.588 155.037C94.6213 154.913 94.6086 154.781 94.5521 154.665C94.4956 154.549 94.3991 154.458 94.2805 154.407C94.1618 154.356 94.029 154.35 93.9062 154.389C93.7834 154.429 93.6791 154.511 93.6122 154.621C91.7401 157.881 90.4187 161.487 88.6653 164.801C88.6328 164.89 88.6327 164.988 88.6649 165.077C88.6971 165.166 88.7595 165.242 88.8415 165.29C88.9235 165.338 89.0197 165.356 89.1136 165.341C89.2074 165.326 89.293 165.278 89.3554 165.207L89.2519 165.179Z" fill="#726D54"/>
<path d="M88.5405 159.966L91.9494 152.958C92.0434 152.607 91.6116 152.315 91.4347 152.643C90.2795 154.967 89.1036 157.285 87.9277 159.603C87.8115 160.036 88.347 160.357 88.5405 159.966Z" fill="#726D54"/>
<path d="M82.7182 122.23C82.6428 125.196 82.2326 128.144 81.4952 131.018C81.4791 131.078 81.4876 131.143 81.5189 131.197C81.5502 131.251 81.6017 131.29 81.6621 131.306C81.7225 131.322 81.7869 131.314 81.841 131.283C81.8951 131.252 81.9345 131.2 81.9506 131.14C82.5974 128.216 82.9142 125.228 82.8949 122.233L82.7182 122.23Z" fill="#726D54"/>
<path d="M83.809 124.868C83.2625 127.704 82.9518 130.581 82.8802 133.469C82.8567 133.557 82.8691 133.65 82.9146 133.729C82.9602 133.807 83.0351 133.865 83.123 133.888C83.2109 133.912 83.3044 133.899 83.3831 133.854C83.4618 133.809 83.5193 133.734 83.5427 133.647C84.1996 130.849 84.6212 128.002 84.803 125.134C84.819 124.997 84.7798 124.86 84.6943 124.752C84.6088 124.644 84.4839 124.574 84.3469 124.558C84.21 124.542 84.0723 124.581 83.9641 124.666C83.856 124.751 83.7863 124.876 83.7703 125.012L83.809 124.868Z" fill="#726D54"/>
<path d="M86.6576 126.826C86.1659 129.972 85.5153 133.091 84.7082 136.172C84.7046 136.268 84.734 136.363 84.7917 136.441C84.8494 136.519 84.9321 136.576 85.0259 136.601C85.1197 136.626 85.2192 136.619 85.3082 136.58C85.3972 136.541 85.4704 136.474 85.5157 136.388C86.5785 133.309 87.1225 130.076 87.1256 126.818C87.2031 126.529 86.6936 126.526 86.6576 126.826Z" fill="#726D54"/>
<path d="M89.0575 131.451C88.4722 134.547 87.9074 137.648 87.3221 140.744C87.1672 141.322 88.1196 141.577 88.2331 140.988C88.7978 137.887 89.3832 134.791 89.9478 131.69C90.1027 131.112 89.171 130.862 89.0575 131.451Z" fill="#726D54"/>
<path d="M88.0446 136.557C87.2902 140.78 85.3807 144.428 84.5713 148.525C84.5478 148.613 84.5602 148.706 84.6057 148.785C84.6512 148.863 84.7261 148.921 84.814 148.944C84.9018 148.968 84.9955 148.956 85.0742 148.91C85.1529 148.865 85.2104 148.79 85.2338 148.703C87.7727 145.356 88.1918 140.645 88.4974 136.523C88.4945 136.483 88.4792 136.445 88.4536 136.414C88.4281 136.384 88.3935 136.361 88.3548 136.351C88.3161 136.341 88.2752 136.343 88.2377 136.357C88.2001 136.37 88.1679 136.396 88.1455 136.429L88.0446 136.557Z" fill="#726D54"/>
<path d="M89.7644 143.058L88.4505 148.458C88.4307 148.532 88.4411 148.611 88.4796 148.677C88.518 148.744 88.5812 148.792 88.6553 148.812C88.7295 148.832 88.8084 148.822 88.8749 148.783C88.9413 148.745 88.9897 148.682 89.0095 148.608L90.4477 143.241C90.4492 143.16 90.4234 143.08 90.3744 143.016C90.3254 142.951 90.256 142.904 90.1774 142.883C90.0988 142.862 90.0154 142.868 89.9406 142.899C89.8657 142.931 89.8037 142.987 89.7644 143.058Z" fill="#726D54"/>
<path d="M74.3659 119.859C75.1839 121.905 76.1329 123.896 77.207 125.82C78.2705 127.4 79.6332 128.757 81.2183 129.815C81.2795 129.845 81.3491 129.854 81.4155 129.839C81.482 129.824 81.5414 129.787 81.584 129.734C81.6266 129.681 81.6498 129.615 81.6499 129.547C81.65 129.48 81.6269 129.414 81.5844 129.36C78.8439 126.834 75.2366 123.566 74.4612 119.752C74.4943 119.628 74.1921 119.68 74.2624 119.831L74.3659 119.859Z" fill="#726D54"/>
<path d="M75.9127 130.651C77.6106 132.746 79.5106 134.671 81.5853 136.397C81.744 136.55 82.0133 136.29 81.8284 136.152C79.7053 134.487 77.7535 132.615 76.0024 130.564C76.0024 130.564 75.8781 130.531 76.0024 130.564L75.9127 130.651Z" fill="#726D54"/>
<path d="M75.1069 135.148C77.5741 137.866 79.9223 140.863 82.638 143.317C82.676 143.354 82.721 143.384 82.7706 143.405C82.8201 143.425 82.8732 143.436 82.9268 143.436C82.9803 143.436 83.0334 143.425 83.0828 143.405C83.1323 143.384 83.1773 143.354 83.2151 143.316C83.2529 143.279 83.2829 143.234 83.3033 143.184C83.3237 143.135 83.3342 143.082 83.3341 143.029C83.334 142.975 83.3233 142.922 83.3027 142.873C83.2821 142.823 83.252 142.779 83.214 142.741C80.8684 139.9 77.9815 137.423 75.4398 134.816C75.3948 134.777 75.3364 134.756 75.2766 134.758C75.2167 134.76 75.1599 134.784 75.1175 134.826C75.0751 134.868 75.0504 134.925 75.0485 134.985C75.0465 135.045 75.0674 135.103 75.1069 135.148Z" fill="#726D54"/>
<path d="M72.4265 137.616L78.7705 145.245C80.4478 147.662 82.5209 149.781 84.9027 151.513C84.9909 151.557 85.0906 151.572 85.188 151.557C85.2853 151.541 85.3753 151.496 85.4452 151.426C85.5152 151.357 85.5616 151.268 85.578 151.171C85.5944 151.074 85.5799 150.974 85.5365 150.886C84.0006 148.371 82.0611 146.125 79.7954 144.236L72.7745 137.311C72.7578 137.278 72.7337 137.25 72.7041 137.228C72.6745 137.206 72.6403 137.192 72.6041 137.186C72.5679 137.18 72.5308 137.182 72.4957 137.192C72.4606 137.203 72.4286 137.222 72.402 137.247C72.3754 137.272 72.3552 137.303 72.3428 137.338C72.3304 137.372 72.3262 137.409 72.3306 137.445C72.335 137.482 72.3477 137.516 72.368 137.547C72.3882 137.577 72.4153 137.603 72.4471 137.621L72.4265 137.616Z" fill="#726D54"/>
<path d="M74.5135 147.468C75.9861 149.702 77.7248 151.751 79.6917 153.568C81.3473 155.442 83.4866 156.826 85.876 157.57C86.0098 157.596 86.1482 157.58 86.2725 157.525C86.3969 157.47 86.5011 157.377 86.5711 157.261C86.6411 157.144 86.6734 157.009 86.6637 156.874C86.6541 156.738 86.6029 156.609 86.5171 156.503C84.69 154.991 82.7359 153.638 80.6765 152.46C78.6226 150.859 76.7691 149.018 75.1556 146.976C74.8756 146.613 74.2597 147.09 74.5135 147.468Z" fill="#726D54"/>
<path d="M89.8382 145.268C89.3901 146.94 88.8027 148.553 88.2718 150.203C87.6599 151.616 87.2592 153.111 87.0825 154.641C87.0822 154.783 87.1289 154.92 87.2152 155.033C87.3015 155.145 87.4224 155.226 87.5595 155.263C87.6965 155.299 87.8419 155.29 87.9728 155.236C88.1037 155.182 88.213 155.086 88.2835 154.963C88.8622 153.535 89.228 152.031 89.3692 150.497L90.3351 145.401C90.3346 145.336 90.3126 145.272 90.2724 145.22C90.2322 145.168 90.1761 145.131 90.1126 145.114C90.0491 145.097 89.9817 145.101 89.9209 145.126C89.8601 145.151 89.8093 145.195 89.7761 145.251L89.8382 145.268Z" fill="#726D54"/>
<path d="M77.3096 158.151C78.835 161.237 81.528 165.101 84.9235 166.343C85.0342 166.365 85.1493 166.352 85.2523 166.306C85.3552 166.259 85.4406 166.182 85.4965 166.084C85.5523 165.986 85.5756 165.872 85.563 165.76C85.5504 165.648 85.5026 165.543 85.4264 165.46C84.1085 164.332 82.5613 163.563 81.2655 162.353C79.8688 161.057 78.6687 159.566 77.7031 157.925C77.5513 157.663 77.2062 157.792 77.3096 158.151Z" fill="#726D54"/>
<path d="M79.5607 168.468L82.3829 170.441C83.1908 171.101 84.0777 171.658 85.0231 172.1C85.4993 172.227 85.7687 171.636 85.4776 171.314C84.6987 170.624 83.8347 170.036 82.9065 169.564L79.9724 167.76C79.5142 167.482 79.1288 168.175 79.5607 168.468Z" fill="#726D54"/>
<path d="M68.8145 159.791C71.4436 167.62 77.0004 176.035 84.894 179.455C85.5152 179.622 86.2954 178.946 85.6744 178.448C82.3338 176.156 79.2008 173.576 76.3112 170.739C73.33 167.455 70.869 163.736 69.0134 159.712C69.0134 159.712 68.7649 159.645 68.8145 159.791Z" fill="#726D54"/>
<path d="M73.2187 177.478C73.2461 177.485 73.2754 177.481 73.3 177.467C73.3247 177.453 73.3426 177.43 73.35 177.402C73.3573 177.375 73.3534 177.346 73.3392 177.321C73.3249 177.296 73.3015 177.278 73.274 177.271C73.2466 177.264 73.2173 177.268 73.1927 177.282C73.168 177.296 73.1501 177.319 73.1427 177.347C73.1354 177.374 73.1393 177.403 73.1535 177.428C73.1677 177.453 73.1912 177.47 73.2187 177.478Z" fill="#726D54"/>
<path d="M73.0512 181.416C73.0787 181.423 73.1079 181.419 73.1326 181.405C73.1572 181.391 73.1752 181.367 73.1825 181.34C73.1899 181.313 73.186 181.283 73.1717 181.259C73.1575 181.234 73.1341 181.216 73.1066 181.209C73.0791 181.202 73.0497 181.205 73.0251 181.22C73.0004 181.234 72.9825 181.257 72.9751 181.284C72.9678 181.312 72.9717 181.341 72.9859 181.366C73.0001 181.39 73.0237 181.408 73.0512 181.416Z" fill="#726D54"/>
<path d="M66.8893 179.897C70.389 185.636 75.8559 191.57 82.5906 193.353C82.7256 193.387 82.8685 193.372 82.9931 193.31C83.1177 193.248 83.2156 193.144 83.2689 193.015C83.3221 192.887 83.3272 192.744 83.2831 192.612C83.239 192.48 83.1487 192.368 83.0287 192.297C76.9437 188.587 71.5183 185.562 67.414 179.595C67.185 179.29 66.692 179.556 66.8893 179.897Z" fill="#726D54"/>
<path d="M74.3188 183.724C76.5072 185.992 80.048 189.508 83.3556 189.752C83.4238 189.743 83.4889 189.718 83.5451 189.678C83.6014 189.639 83.6473 189.586 83.6789 189.525C83.7105 189.464 83.7268 189.396 83.7266 189.328C83.7263 189.259 83.7095 189.191 83.6775 189.13C82.4289 188.182 81.087 187.363 79.6725 186.685C78.0279 185.637 76.4938 184.425 75.0936 183.069C74.9966 182.97 74.8641 182.913 74.7252 182.911C74.5863 182.909 74.4523 182.962 74.3529 183.059C74.2534 183.155 74.1967 183.287 74.1949 183.426C74.1932 183.564 74.2467 183.698 74.3436 183.797L74.3188 183.724Z" fill="#726D54"/>
<path d="M74.3077 177.305C76.7284 180.822 79.8794 183.779 83.5463 185.975C84.2682 186.346 85.1411 185.407 84.4649 184.783C82.9332 183.377 81.1417 182.278 79.5893 180.866C78.0549 179.451 76.6237 177.929 75.3063 176.311C74.7406 175.606 73.7627 176.605 74.3077 177.305Z" fill="#726D54"/>
<path d="M114.656 206.525L114.693 210.363C114.638 210.569 115.059 210.571 115.004 210.446C114.967 209.175 114.93 207.904 114.873 206.627C114.869 206.603 114.859 206.579 114.842 206.561C114.825 206.542 114.803 206.529 114.779 206.522C114.755 206.516 114.73 206.517 114.706 206.524C114.682 206.532 114.661 206.547 114.645 206.566L114.656 206.525Z" fill="#726D54"/>
<path d="M116.469 201.833C116.055 204.61 115.926 207.422 116.084 210.226C116.117 210.766 116.964 210.75 116.905 210.225C116.669 207.458 116.709 204.674 117.023 201.915C117.106 201.606 116.51 201.512 116.485 201.771L116.469 201.833Z" fill="#726D54"/>
<path d="M121.118 188.21C119.327 194.523 118.58 201.086 118.907 207.642C118.913 207.716 118.946 207.786 119.001 207.837C119.056 207.888 119.128 207.917 119.204 207.917C119.279 207.918 119.351 207.891 119.407 207.84C119.463 207.79 119.497 207.721 119.504 207.647C120.253 201.21 120.72 194.83 122.04 188.413C122.189 187.855 121.263 187.585 121.129 188.169L121.118 188.21Z" fill="#726D54"/>
<path d="M123.22 190.632C122.009 195.05 121.392 199.609 121.385 204.19C121.291 204.541 122.006 204.688 122.047 204.368C122.78 199.895 122.952 195.361 123.881 190.898C123.883 190.817 123.857 190.737 123.808 190.672C123.759 190.607 123.69 190.561 123.611 190.54C123.532 190.519 123.449 190.524 123.374 190.556C123.299 190.588 123.237 190.644 123.198 190.715L123.22 190.632Z" fill="#726D54"/>
<path d="M126.197 189.46C125.266 193.175 124.589 196.948 124.17 200.755C124.064 201.147 124.739 201.195 124.832 200.932C125.801 197.261 126.519 193.528 126.983 189.759C127.115 189.264 126.287 189.042 126.175 189.543L126.197 189.46Z" fill="#726D54"/>
<path d="M129.209 186.418C128.249 189.86 127.54 193.367 127.085 196.912C126.925 197.51 127.912 197.553 128.112 197.054C129.131 193.678 129.913 190.235 130.452 186.751C130.667 185.945 129.384 185.601 129.209 186.418Z" fill="#726D54"/>
<path d="M133.582 185.089C132.69 187.505 131.543 189.964 130.889 192.488C130.806 192.798 131.302 193.019 131.448 192.638C132.415 190.178 133.25 187.669 133.951 185.121C133.948 185.082 133.932 185.044 133.907 185.013C133.881 184.982 133.847 184.96 133.808 184.95C133.769 184.939 133.728 184.941 133.691 184.955C133.653 184.969 133.621 184.994 133.599 185.027L133.582 185.089Z" fill="#726D54"/>
<path d="M137.356 183.18C136.452 185.393 135.533 187.581 134.629 189.795C134.535 190.146 135.073 190.29 135.209 189.95C135.989 187.703 136.783 185.482 137.584 183.241C137.622 183.096 137.41 183.061 137.356 183.18Z" fill="#726D54"/>
<path d="M139.361 182.655L137.165 187.62C137.032 188.115 137.634 188.52 137.876 188.032C138.624 186.396 139.394 184.766 140.164 183.136C140.319 182.557 139.593 182.12 139.361 182.655Z" fill="#726D54"/>
<path d="M122.098 207.656C125.227 207.275 128.25 206.289 130.998 204.753C131.319 204.551 131.209 203.968 130.728 204.105C127.881 205.318 124.92 206.244 121.887 206.869C121.356 206.948 121.649 207.757 122.098 207.656Z" fill="#726D54"/>
<path d="M125.342 202.507L133.908 201.018C134.418 200.934 134.157 200.089 133.697 200.232L125.22 202.054C124.912 202.126 125.081 202.57 125.342 202.507Z" fill="#726D54"/>
<path d="M129.244 200.035C132.197 199.675 135.108 199.04 137.941 198.139C138.433 197.961 138.196 197.189 137.71 197.347C134.95 198.189 132.118 198.778 129.249 199.106C128.655 199.169 128.645 200.117 129.244 200.035Z" fill="#726D54"/>
<path d="M133.025 195.45C134.254 195.348 135.474 195.165 136.678 194.902C137.938 194.73 139.148 194.301 140.234 193.642C140.481 193.465 140.422 192.94 140.052 192.996C138.914 193.272 137.803 193.648 136.732 194.12C135.515 194.513 134.269 194.816 133.006 195.024C132.96 195.03 132.919 195.053 132.891 195.089C132.862 195.125 132.849 195.171 132.855 195.216C132.86 195.261 132.884 195.303 132.92 195.331C132.956 195.36 133.002 195.372 133.047 195.367L133.025 195.45Z" fill="#726D54"/>
<path d="M137.311 190.801C139.295 190.807 141.264 190.466 143.129 189.793C143.568 189.646 143.356 188.947 142.958 189.106C141.164 189.853 139.247 190.269 137.303 190.334C137.246 190.342 137.194 190.371 137.156 190.414C137.119 190.458 137.099 190.513 137.1 190.571C137.101 190.628 137.123 190.684 137.162 190.726C137.201 190.768 137.254 190.795 137.311 190.801Z" fill="#726D54"/>
<path d="M152.749 210.293C155.386 208.093 158.19 206.1 161.137 204.332C163.81 202.636 166.878 201.622 169.694 200.142C170.496 199.715 169.911 198.585 169.113 198.747C162.511 200.031 156.399 204.788 152.176 209.697C152.1 209.773 152.057 209.877 152.057 209.985C152.057 210.093 152.101 210.196 152.177 210.273C152.254 210.349 152.358 210.392 152.466 210.392C152.574 210.392 152.678 210.349 152.754 210.272L152.749 210.293Z" fill="#726D54"/>
<path d="M158.233 208.377C162.043 206.5 166.081 205.258 169.936 203.459C170.439 203.24 170.082 202.503 169.586 202.613C165.445 203.746 161.552 205.636 158.106 208.188C158.003 208.161 158.04 208.436 158.233 208.377Z" fill="#726D54"/>
<path d="M161.476 210.353C165.101 208.498 168.867 206.933 172.739 205.671C172.813 205.634 172.871 205.573 172.905 205.498C172.94 205.423 172.947 205.339 172.928 205.26C172.908 205.18 172.861 205.109 172.796 205.059C172.731 205.009 172.651 204.982 172.568 204.983C168.509 205.918 164.627 207.491 161.067 209.645C160.6 209.896 161.009 210.604 161.476 210.353Z" fill="#726D54"/>
<path d="M166.367 211.066C168.617 210.013 170.954 209.159 173.354 208.512C175.484 207.933 177.784 207.797 179.859 207.092C179.974 207.05 180.071 206.97 180.133 206.865C180.196 206.761 180.221 206.638 180.204 206.517C180.188 206.396 180.13 206.285 180.041 206.201C179.952 206.118 179.837 206.067 179.715 206.057C175.179 205.926 170.028 208.418 166.08 210.48C165.745 210.656 166.039 211.132 166.389 210.983L166.367 211.066Z" fill="#726D54"/>
<path d="M172.712 210.907C176.675 210.429 180.595 209.645 184.436 208.561C184.881 208.393 184.873 207.594 184.306 207.641C180.354 208.286 176.458 209.232 172.651 210.47C172.364 210.548 172.513 210.987 172.774 210.924L172.712 210.907Z" fill="#726D54"/>
<path d="M175.222 212.885C179.473 211.694 183.816 210.859 188.207 210.391C188.3 210.372 188.384 210.322 188.444 210.249C188.505 210.175 188.537 210.083 188.536 209.988C188.535 209.894 188.501 209.802 188.439 209.729C188.378 209.657 188.293 209.608 188.199 209.592C183.657 209.237 179.097 209.948 174.883 211.666C174.104 211.922 174.479 213.173 175.222 212.885Z" fill="#726D54"/>
<path d="M178.457 214.394C181.931 214.319 185.394 213.989 188.819 213.409C188.876 213.395 188.926 213.36 188.959 213.31C188.992 213.261 189.005 213.201 188.995 213.143C188.986 213.084 188.954 213.032 188.907 212.995C188.861 212.959 188.802 212.941 188.743 212.946C185.291 213.007 181.85 213.335 178.449 213.927C178.18 213.855 178.14 214.419 178.457 214.394Z" fill="#726D54"/>
<path d="M157.165 213.025L160.76 221.887C160.863 221.915 161.05 221.965 161 221.819L157.379 212.972C157.412 212.848 157.089 212.894 157.193 212.922L157.165 213.025Z" fill="#726D54"/>
<path d="M158.965 213.264L161.337 218.325C161.903 219.916 162.687 221.422 163.667 222.799C164.055 223.257 164.629 222.769 164.553 222.306C164.104 220.662 163.446 219.08 162.597 217.6L160.286 212.556C159.885 211.652 158.547 212.422 158.954 213.305L158.965 213.264Z" fill="#726D54"/>
<path d="M162.347 214.06C163.786 217.433 165.399 220.731 167.178 223.939C167.381 224.259 167.945 224.144 167.827 223.671C166.475 220.231 164.94 216.865 163.228 213.588C162.947 212.981 162.028 213.51 162.33 214.122L162.347 214.06Z" fill="#726D54"/>
<path d="M166.069 213.42C167.419 215.583 168.592 217.851 169.578 220.201C170.463 222.363 171.009 224.634 171.921 226.781C171.964 226.864 172.034 226.929 172.12 226.967C172.206 227.004 172.302 227.011 172.393 226.985C172.483 226.96 172.561 226.905 172.615 226.828C172.669 226.752 172.695 226.659 172.688 226.566C171.802 221.652 169.857 216.986 166.987 212.891C166.607 212.325 165.715 212.838 166.069 213.42Z" fill="#726D54"/>
<path d="M170.656 214.936C171.872 217.065 172.941 219.273 173.856 221.546C174.631 223.458 175.019 225.487 175.935 227.37C176.207 227.929 177.219 227.714 177.131 227.048C176.13 222.55 174.256 218.289 171.614 214.507C171.535 214.406 171.421 214.337 171.294 214.312C171.168 214.288 171.036 214.31 170.925 214.374C170.813 214.438 170.729 214.54 170.687 214.662C170.644 214.784 170.648 214.916 170.696 215.036L170.656 214.936Z" fill="#726D54"/>
<path d="M174.657 216.318C175.682 218.067 176.533 219.91 177.199 221.823C177.789 223.596 178.066 225.462 178.703 227.226C178.742 227.379 178.835 227.512 178.966 227.601C179.097 227.689 179.256 227.726 179.413 227.705C179.569 227.684 179.712 227.606 179.815 227.487C179.917 227.367 179.972 227.214 179.969 227.057C179.522 222.977 177.999 219.088 175.555 215.784C175.195 215.223 174.303 215.737 174.657 216.318Z" fill="#726D54"/>
<path d="M180.033 220.524C180.647 224.199 181.613 227.806 182.916 231.298C182.978 231.392 183.069 231.464 183.174 231.503C183.28 231.543 183.396 231.548 183.504 231.519C183.613 231.489 183.71 231.426 183.78 231.338C183.851 231.25 183.892 231.142 183.897 231.03C183.26 227.361 182.27 223.762 180.941 220.281C180.903 220.168 180.822 220.074 180.716 220.017C180.611 219.961 180.488 219.947 180.372 219.978C180.256 220.009 180.157 220.082 180.094 220.184C180.031 220.286 180.009 220.407 180.033 220.524Z" fill="#726D54"/>
<path d="M185.343 225.222L187.028 231.271C187.05 231.345 187.1 231.406 187.167 231.443C187.234 231.48 187.313 231.488 187.386 231.467C187.46 231.445 187.522 231.396 187.558 231.329C187.595 231.262 187.603 231.183 187.582 231.11L186.016 225.026C185.99 224.937 185.93 224.862 185.848 224.817C185.766 224.772 185.67 224.762 185.581 224.788C185.492 224.814 185.416 224.874 185.372 224.955C185.327 225.037 185.316 225.133 185.343 225.222Z" fill="#726D54"/>
<path d="M184.949 219.319L191.329 218.617C191.828 218.574 191.841 217.781 191.321 217.818L184.947 218.168C184.182 218.207 184.215 219.41 184.949 219.319Z" fill="#726D54"/>
<path d="M190.776 222.253L195.601 222.882C195.829 222.943 195.819 222.564 195.689 222.551L190.859 221.943C190.652 221.887 190.641 222.261 190.776 222.253Z" fill="#726D54"/>
<path d="M193.997 227.541L199.112 228.579C199.608 228.712 199.845 227.913 199.322 227.795L194.241 226.632C193.661 226.477 193.406 227.427 193.997 227.541Z" fill="#726D54"/>
</g>
</svg>
